<mxfile host="app.diagrams.net" modified="2023-06-10T13:57:01.571Z" agent="Mozilla/5.0 (Windows NT 10.0; Win64; x64) AppleWebKit/537.36 (KHTML, like Gecko) Chrome/114.0.0.0 Safari/537.36" etag="48klMmY6T3HzdB5bRWsL" version="21.3.8" type="device">
  <diagram id="6a731a19-8d31-9384-78a2-239565b7b9f0" name="Page-1">
    <mxGraphModel dx="4669" dy="2630" grid="1" gridSize="10" guides="1" tooltips="1" connect="1" arrows="1" fold="1" page="1" pageScale="1" pageWidth="1169" pageHeight="827" background="none" math="0" shadow="0">
      <root>
        <mxCell id="0" />
        <mxCell id="1" parent="0" />
        <mxCell id="oj4u9hwNBGhO-5t3mCO4-1848" value="" style="rounded=1;whiteSpace=wrap;html=1;fillColor=#FFB366;" parent="1" vertex="1">
          <mxGeometry x="-260" y="-291" width="1660" height="220" as="geometry" />
        </mxCell>
        <mxCell id="1745" value="" style="edgeStyle=none;rounded=0;jumpStyle=none;html=1;shadow=0;labelBackgroundColor=none;startArrow=none;startFill=0;endArrow=classic;endFill=1;jettySize=auto;orthogonalLoop=1;strokeColor=#2F5B7C;strokeWidth=3;fontFamily=Helvetica;fontSize=16;fontColor=#23445D;spacing=5;entryX=0.5;entryY=1;entryDx=0;entryDy=0;" parent="1" source="1749" target="1764" edge="1">
          <mxGeometry relative="1" as="geometry">
            <mxPoint x="570" y="443.5" as="targetPoint" />
          </mxGeometry>
        </mxCell>
        <mxCell id="1746" value="" style="edgeStyle=none;rounded=0;jumpStyle=none;html=1;shadow=0;labelBackgroundColor=none;startArrow=none;startFill=0;endArrow=classic;endFill=1;jettySize=auto;orthogonalLoop=1;strokeColor=#2F5B7C;strokeWidth=3;fontFamily=Helvetica;fontSize=16;fontColor=#23445D;spacing=5;" parent="1" source="1749" target="1771" edge="1">
          <mxGeometry relative="1" as="geometry" />
        </mxCell>
        <mxCell id="1747" value="" style="edgeStyle=none;rounded=0;jumpStyle=none;html=1;shadow=0;labelBackgroundColor=none;startArrow=none;startFill=0;endArrow=classic;endFill=1;jettySize=auto;orthogonalLoop=1;strokeColor=#2F5B7C;strokeWidth=3;fontFamily=Helvetica;fontSize=16;fontColor=#23445D;spacing=5;" parent="1" source="1749" target="1760" edge="1">
          <mxGeometry relative="1" as="geometry" />
        </mxCell>
        <mxCell id="1748" value="" style="edgeStyle=none;rounded=0;jumpStyle=none;html=1;shadow=0;labelBackgroundColor=none;startArrow=none;startFill=0;endArrow=classic;endFill=1;jettySize=auto;orthogonalLoop=1;strokeColor=#2F5B7C;strokeWidth=3;fontFamily=Helvetica;fontSize=16;fontColor=#23445D;spacing=5;" parent="1" source="1749" target="1753" edge="1">
          <mxGeometry relative="1" as="geometry" />
        </mxCell>
        <mxCell id="1749" value="Investopolis" style="rounded=1;whiteSpace=wrap;html=1;shadow=0;labelBackgroundColor=none;strokeColor=none;strokeWidth=3;fillColor=#2F5B7C;fontFamily=Helvetica;fontSize=16;fontColor=#FFFFFF;align=center;fontStyle=1;spacing=5;arcSize=7;perimeterSpacing=2;" parent="1" vertex="1">
          <mxGeometry x="495" y="561.5" width="150" height="70" as="geometry" />
        </mxCell>
        <mxCell id="1750" value="" style="edgeStyle=none;rounded=1;jumpStyle=none;html=1;shadow=0;labelBackgroundColor=none;startArrow=none;startFill=0;jettySize=auto;orthogonalLoop=1;strokeColor=#E85642;strokeWidth=3;fontFamily=Helvetica;fontSize=14;fontColor=#FFFFFF;spacing=5;fontStyle=1;fillColor=#b0e3e6;" parent="1" source="1753" target="1756" edge="1">
          <mxGeometry relative="1" as="geometry" />
        </mxCell>
        <mxCell id="fHKddjJ4R96vvE8QsRok-1828" style="edgeStyle=orthogonalEdgeStyle;rounded=0;orthogonalLoop=1;jettySize=auto;html=1;exitX=0;exitY=0.5;exitDx=0;exitDy=0;entryX=1.003;entryY=0.468;entryDx=0;entryDy=0;entryPerimeter=0;" edge="1" parent="1" source="1753" target="fHKddjJ4R96vvE8QsRok-1810">
          <mxGeometry relative="1" as="geometry" />
        </mxCell>
        <mxCell id="1753" value="Customer Loyalty Program" style="rounded=1;whiteSpace=wrap;html=1;shadow=0;labelBackgroundColor=none;strokeColor=none;strokeWidth=3;fillColor=#e85642;fontFamily=Helvetica;fontSize=14;fontColor=#FFFFFF;align=center;spacing=5;fontStyle=1;arcSize=7;perimeterSpacing=2;" parent="1" vertex="1">
          <mxGeometry x="250" y="566.5" width="150" height="60" as="geometry" />
        </mxCell>
        <mxCell id="1756" value="Transaction Fees: 0%, 1% (Shares), 0.001% (Lands)" style="rounded=1;whiteSpace=wrap;html=1;shadow=0;labelBackgroundColor=none;strokeColor=none;strokeWidth=3;fillColor=#f08e81;fontFamily=Helvetica;fontSize=14;fontColor=#FFFFFF;align=center;spacing=5;fontStyle=0;arcSize=7;perimeterSpacing=2;" parent="1" vertex="1">
          <mxGeometry x="249" y="440" width="150" height="60" as="geometry" />
        </mxCell>
        <mxCell id="1757" value="" style="edgeStyle=none;rounded=0;jumpStyle=none;html=1;shadow=0;labelBackgroundColor=none;startArrow=none;startFill=0;endArrow=classic;endFill=1;jettySize=auto;orthogonalLoop=1;strokeColor=#1699D3;strokeWidth=3;fontFamily=Helvetica;fontSize=14;fontColor=#FFFFFF;spacing=5;" parent="1" source="1760" target="1763" edge="1">
          <mxGeometry relative="1" as="geometry" />
        </mxCell>
        <mxCell id="1758" value="" style="edgeStyle=none;rounded=0;jumpStyle=none;html=1;shadow=0;labelBackgroundColor=none;startArrow=none;startFill=0;endArrow=classic;endFill=1;jettySize=auto;orthogonalLoop=1;strokeColor=#1699D3;strokeWidth=3;fontFamily=Helvetica;fontSize=14;fontColor=#FFFFFF;spacing=5;" parent="1" source="1760" target="1762" edge="1">
          <mxGeometry relative="1" as="geometry" />
        </mxCell>
        <mxCell id="1759" value="" style="edgeStyle=none;rounded=0;jumpStyle=none;html=1;shadow=0;labelBackgroundColor=none;startArrow=none;startFill=0;endArrow=classic;endFill=1;jettySize=auto;orthogonalLoop=1;strokeColor=#1699D3;strokeWidth=3;fontFamily=Helvetica;fontSize=14;fontColor=#FFFFFF;spacing=5;" parent="1" source="1760" target="1761" edge="1">
          <mxGeometry relative="1" as="geometry" />
        </mxCell>
        <mxCell id="1760" value="Deployment - AWS" style="rounded=1;whiteSpace=wrap;html=1;shadow=0;labelBackgroundColor=none;strokeColor=none;strokeWidth=3;fillColor=#1699d3;fontFamily=Helvetica;fontSize=14;fontColor=#FFFFFF;align=center;spacing=5;fontStyle=1;arcSize=7;perimeterSpacing=2;" parent="1" vertex="1">
          <mxGeometry x="495" y="751.5" width="150" height="60" as="geometry" />
        </mxCell>
        <mxCell id="1761" value="Go Ethereum Client - GETH" style="rounded=1;whiteSpace=wrap;html=1;shadow=0;labelBackgroundColor=none;strokeColor=none;strokeWidth=3;fillColor=#64bbe2;fontFamily=Helvetica;fontSize=14;fontColor=#FFFFFF;align=center;spacing=5;arcSize=7;perimeterSpacing=2;" parent="1" vertex="1">
          <mxGeometry x="695" y="829.5" width="150" height="60" as="geometry" />
        </mxCell>
        <mxCell id="1762" value="AWS MBS" style="rounded=1;whiteSpace=wrap;html=1;shadow=0;labelBackgroundColor=none;strokeColor=none;strokeWidth=3;fillColor=#64bbe2;fontFamily=Helvetica;fontSize=14;fontColor=#FFFFFF;align=center;spacing=5;arcSize=7;perimeterSpacing=2;" parent="1" vertex="1">
          <mxGeometry x="495" y="897.5" width="150" height="60" as="geometry" />
        </mxCell>
        <mxCell id="1763" value="AWS EC2" style="rounded=1;whiteSpace=wrap;html=1;shadow=0;labelBackgroundColor=none;strokeColor=none;strokeWidth=3;fillColor=#64bbe2;fontFamily=Helvetica;fontSize=14;fontColor=#FFFFFF;align=center;spacing=5;arcSize=7;perimeterSpacing=2;" parent="1" vertex="1">
          <mxGeometry x="295" y="831.5" width="150" height="60" as="geometry" />
        </mxCell>
        <mxCell id="1764" value="The DApp" style="rounded=1;whiteSpace=wrap;html=1;shadow=0;labelBackgroundColor=none;strokeColor=none;strokeWidth=3;fillColor=#F08705;fontFamily=Helvetica;fontSize=14;fontColor=#FFFFFF;align=center;spacing=5;fontStyle=1;arcSize=7;perimeterSpacing=2;" parent="1" vertex="1">
          <mxGeometry x="495" y="200.5" width="150" height="60" as="geometry" />
        </mxCell>
        <mxCell id="1766" value="" style="edgeStyle=none;rounded=0;jumpStyle=none;html=1;shadow=0;labelBackgroundColor=none;startArrow=none;startFill=0;endArrow=classic;endFill=1;jettySize=auto;orthogonalLoop=1;strokeColor=#F08705;strokeWidth=3;fontFamily=Helvetica;fontSize=14;fontColor=#FFFFFF;spacing=5;" parent="1" source="1764" edge="1">
          <mxGeometry relative="1" as="geometry">
            <mxPoint x="710.299251870324" y="172.5" as="targetPoint" />
          </mxGeometry>
        </mxCell>
        <mxCell id="fHKddjJ4R96vvE8QsRok-1809" style="edgeStyle=orthogonalEdgeStyle;rounded=0;orthogonalLoop=1;jettySize=auto;html=1;exitX=0.5;exitY=0;exitDx=0;exitDy=0;entryX=0.5;entryY=1;entryDx=0;entryDy=0;strokeColor=#FFB366;" edge="1" parent="1" source="1767" target="oj4u9hwNBGhO-5t3mCO4-1848">
          <mxGeometry relative="1" as="geometry" />
        </mxCell>
        <mxCell id="1767" value="&lt;b&gt;Smart Contracts:&lt;/b&gt;&lt;br&gt;Developed in Solidity." style="rounded=1;whiteSpace=wrap;html=1;shadow=0;labelBackgroundColor=none;strokeColor=none;strokeWidth=3;fillColor=#f5af58;fontFamily=Helvetica;fontSize=14;fontColor=#FFFFFF;align=center;spacing=5;arcSize=7;perimeterSpacing=2;" parent="1" vertex="1">
          <mxGeometry x="495" y="50.5" width="150" height="60" as="geometry" />
        </mxCell>
        <mxCell id="1768" value="" style="edgeStyle=none;rounded=0;jumpStyle=none;html=1;shadow=0;labelBackgroundColor=none;startArrow=none;startFill=0;endArrow=classic;endFill=1;jettySize=auto;orthogonalLoop=1;strokeColor=#F08705;strokeWidth=3;fontFamily=Helvetica;fontSize=14;fontColor=#FFFFFF;spacing=5;" parent="1" source="1764" target="1767" edge="1">
          <mxGeometry relative="1" as="geometry" />
        </mxCell>
        <mxCell id="oj4u9hwNBGhO-5t3mCO4-1856" value="" style="edgeStyle=orthogonalEdgeStyle;rounded=0;orthogonalLoop=1;jettySize=auto;html=1;strokeColor=#FF8000;" parent="1" source="1769" target="oj4u9hwNBGhO-5t3mCO4-1855" edge="1">
          <mxGeometry relative="1" as="geometry" />
        </mxCell>
        <mxCell id="1769" value="&lt;b&gt;User Interface:&lt;/b&gt;&lt;br&gt;Developed using frontend technologies such as HTML, CSS, JS, jQuery" style="rounded=1;whiteSpace=wrap;html=1;shadow=0;labelBackgroundColor=none;strokeColor=none;strokeWidth=3;fillColor=#f5af58;fontFamily=Helvetica;fontSize=14;fontColor=#FFFFFF;align=center;spacing=5;arcSize=7;perimeterSpacing=2;" parent="1" vertex="1">
          <mxGeometry x="230" y="100" width="215" height="70.5" as="geometry" />
        </mxCell>
        <mxCell id="1770" value="" style="edgeStyle=none;rounded=0;jumpStyle=none;html=1;shadow=0;labelBackgroundColor=none;startArrow=none;startFill=0;endArrow=classic;endFill=1;jettySize=auto;orthogonalLoop=1;strokeColor=#F08705;strokeWidth=3;fontFamily=Helvetica;fontSize=14;fontColor=#FFFFFF;spacing=5;" parent="1" source="1764" target="1769" edge="1">
          <mxGeometry relative="1" as="geometry" />
        </mxCell>
        <mxCell id="1771" value="Blockchain Network" style="rounded=1;whiteSpace=wrap;html=1;shadow=0;labelBackgroundColor=none;strokeColor=none;strokeWidth=3;fillColor=#12aab5;fontFamily=Helvetica;fontSize=14;fontColor=#FFFFFF;align=center;spacing=5;fontStyle=1;arcSize=7;perimeterSpacing=2;" parent="1" vertex="1">
          <mxGeometry x="795" y="564.4999999999999" width="150" height="60" as="geometry" />
        </mxCell>
        <mxCell id="1774" value="Metamask as Cryptocurrency Wallet" style="rounded=1;whiteSpace=wrap;html=1;shadow=0;labelBackgroundColor=none;strokeColor=none;strokeWidth=3;fillColor=#61c6ce;fontFamily=Helvetica;fontSize=14;fontColor=#FFFFFF;align=center;spacing=5;fontStyle=0;arcSize=7;perimeterSpacing=2;" parent="1" vertex="1">
          <mxGeometry x="930" y="669" width="150" height="60" as="geometry" />
        </mxCell>
        <mxCell id="1775" value="" style="edgeStyle=none;rounded=1;jumpStyle=none;html=1;shadow=0;labelBackgroundColor=none;startArrow=none;startFill=0;jettySize=auto;orthogonalLoop=1;strokeColor=#12AAB5;strokeWidth=3;fontFamily=Helvetica;fontSize=14;fontColor=#FFFFFF;spacing=5;fontStyle=1;fillColor=#b0e3e6;" parent="1" source="1771" target="1774" edge="1">
          <mxGeometry relative="1" as="geometry" />
        </mxCell>
        <mxCell id="1776" value="Proof of Authority&amp;nbsp; (PoA) Consensus" style="rounded=1;whiteSpace=wrap;html=1;shadow=0;labelBackgroundColor=none;strokeColor=none;strokeWidth=3;fillColor=#61c6ce;fontFamily=Helvetica;fontSize=14;fontColor=#FFFFFF;align=center;spacing=5;fontStyle=0;arcSize=7;perimeterSpacing=2;" parent="1" vertex="1">
          <mxGeometry x="1005" y="563.5" width="150" height="60" as="geometry" />
        </mxCell>
        <mxCell id="1777" value="" style="edgeStyle=none;rounded=1;jumpStyle=none;html=1;shadow=0;labelBackgroundColor=none;startArrow=none;startFill=0;jettySize=auto;orthogonalLoop=1;strokeColor=#12AAB5;strokeWidth=3;fontFamily=Helvetica;fontSize=14;fontColor=#FFFFFF;spacing=5;fontStyle=1;fillColor=#b0e3e6;" parent="1" source="1771" target="1776" edge="1">
          <mxGeometry relative="1" as="geometry" />
        </mxCell>
        <mxCell id="1778" value="Private Permissionless Network&amp;nbsp;" style="rounded=1;whiteSpace=wrap;html=1;shadow=0;labelBackgroundColor=none;strokeColor=none;strokeWidth=3;fillColor=#61c6ce;fontFamily=Helvetica;fontSize=14;fontColor=#FFFFFF;align=center;spacing=5;fontStyle=0;arcSize=7;perimeterSpacing=2;" parent="1" vertex="1">
          <mxGeometry x="930" y="449" width="150" height="60" as="geometry" />
        </mxCell>
        <mxCell id="1779" value="" style="edgeStyle=none;rounded=1;jumpStyle=none;html=1;shadow=0;labelBackgroundColor=none;startArrow=none;startFill=0;jettySize=auto;orthogonalLoop=1;strokeColor=#12AAB5;strokeWidth=3;fontFamily=Helvetica;fontSize=14;fontColor=#FFFFFF;spacing=5;fontStyle=1;fillColor=#b0e3e6;" parent="1" source="1771" target="1778" edge="1">
          <mxGeometry relative="1" as="geometry" />
        </mxCell>
        <mxCell id="oj4u9hwNBGhO-5t3mCO4-1826" value="context.sol" style="shape=offPageConnector;whiteSpace=wrap;html=1;fillColor=#CC6600;fontSize=15;fontColor=#FFFFFF;size=0.75;verticalAlign=top;strokeColor=none;" parent="1" vertex="1">
          <mxGeometry x="-199" y="-250.5" width="160" height="40" as="geometry" />
        </mxCell>
        <mxCell id="oj4u9hwNBGhO-5t3mCO4-1827" value="&lt;span&gt;messages.sol&lt;/span&gt;" style="shape=offPageConnector;whiteSpace=wrap;html=1;fillColor=#CC6600;fontSize=15;fontColor=#FFFFFF;size=0.5093750000000015;verticalAlign=top;strokeColor=none;" parent="1" vertex="1">
          <mxGeometry x="254" y="-250.5" width="160" height="40" as="geometry" />
        </mxCell>
        <mxCell id="oj4u9hwNBGhO-5t3mCO4-1828" value="&lt;span&gt;users.sol&lt;/span&gt;" style="shape=offPageConnector;whiteSpace=wrap;html=1;fillColor=#CC6600;fontSize=15;fontColor=#FFFFFF;size=0.14285714285714285;flipV=1;verticalAlign=bottom;strokeColor=none;spacingBottom=4;" parent="1" vertex="1">
          <mxGeometry x="28" y="-165.5" width="160" height="35" as="geometry" />
        </mxCell>
        <mxCell id="oj4u9hwNBGhO-5t3mCO4-1829" value="&lt;span&gt;shares.sol&lt;/span&gt;" style="shape=offPageConnector;whiteSpace=wrap;html=1;fillColor=#CC6600;fontSize=15;fontColor=#FFFFFF;size=0.4178571428571445;flipV=1;verticalAlign=bottom;strokeColor=none;spacingBottom=4;" parent="1" vertex="1">
          <mxGeometry x="481" y="-165.5" width="160" height="35" as="geometry" />
        </mxCell>
        <mxCell id="oj4u9hwNBGhO-5t3mCO4-1830" value="" style="ellipse;whiteSpace=wrap;html=1;fillColor=#61BAFF;fontSize=28;fontColor=#004D99;strokeWidth=3;strokeColor=#004D99;" parent="1" vertex="1">
          <mxGeometry x="-129" y="-195.5" width="20" height="20" as="geometry" />
        </mxCell>
        <mxCell id="oj4u9hwNBGhO-5t3mCO4-1831" value="" style="ellipse;whiteSpace=wrap;html=1;fillColor=#61BAFF;fontSize=28;fontColor=#004D99;strokeWidth=3;strokeColor=#004D99;" parent="1" vertex="1">
          <mxGeometry x="98" y="-195.5" width="20" height="20" as="geometry" />
        </mxCell>
        <mxCell id="oj4u9hwNBGhO-5t3mCO4-1832" value="" style="ellipse;whiteSpace=wrap;html=1;fillColor=#61BAFF;fontSize=28;fontColor=#004D99;strokeWidth=3;strokeColor=#004D99;" parent="1" vertex="1">
          <mxGeometry x="324" y="-195.5" width="20" height="20" as="geometry" />
        </mxCell>
        <mxCell id="oj4u9hwNBGhO-5t3mCO4-1833" value="" style="ellipse;whiteSpace=wrap;html=1;fillColor=#61BAFF;fontSize=28;fontColor=#004D99;strokeWidth=3;strokeColor=#004D99;" parent="1" vertex="1">
          <mxGeometry x="551" y="-195.5" width="20" height="20" as="geometry" />
        </mxCell>
        <mxCell id="oj4u9hwNBGhO-5t3mCO4-1834" value="&lt;h1 style=&quot;line-height: 54%;&quot;&gt;&lt;span style=&quot;background-color: initial; font-weight: normal;&quot;&gt;&lt;font face=&quot;Comic Sans MS&quot; style=&quot;font-size: 14px;&quot;&gt;Manages information related to the transaction initiated&lt;/font&gt;&lt;/span&gt;&lt;br&gt;&lt;/h1&gt;" style="text;html=1;spacing=5;spacingTop=-20;whiteSpace=wrap;overflow=hidden;strokeColor=none;strokeWidth=3;fillColor=#FFCC99;fontSize=13;fontColor=#000000;align=center;rounded=1;" parent="1" vertex="1">
          <mxGeometry x="-226" y="-160.5" width="215" height="50" as="geometry" />
        </mxCell>
        <mxCell id="oj4u9hwNBGhO-5t3mCO4-1835" value="&lt;h1 style=&quot;line-height: 56%;&quot;&gt;&lt;font face=&quot;Comic Sans MS&quot;&gt;&lt;span style=&quot;font-size: 14px; font-weight: 400;&quot;&gt;Manages information related to users of the platform&lt;/span&gt;&lt;/font&gt;&lt;/h1&gt;" style="text;html=1;spacing=5;spacingTop=-20;whiteSpace=wrap;overflow=hidden;strokeColor=none;strokeWidth=3;fillColor=#FFCC99;fontSize=13;fontColor=#000000;align=center;rounded=1;" parent="1" vertex="1">
          <mxGeometry y="-280.5" width="215" height="60" as="geometry" />
        </mxCell>
        <mxCell id="oj4u9hwNBGhO-5t3mCO4-1836" value="&lt;h1 style=&quot;line-height: 54%;&quot;&gt;&lt;font face=&quot;Comic Sans MS&quot;&gt;&lt;span style=&quot;font-size: 14px; font-weight: 400;&quot;&gt;Manages the messaging system employed in the platform&lt;/span&gt;&lt;/font&gt;&lt;/h1&gt;" style="text;html=1;spacing=5;spacingTop=-20;whiteSpace=wrap;overflow=hidden;strokeColor=none;strokeWidth=3;fillColor=#FFCC99;fontSize=13;fontColor=#000000;align=center;rounded=1;" parent="1" vertex="1">
          <mxGeometry x="227.5" y="-160.5" width="215" height="50" as="geometry" />
        </mxCell>
        <mxCell id="oj4u9hwNBGhO-5t3mCO4-1837" value="&lt;h1 style=&quot;line-height: 54%;&quot;&gt;&lt;font face=&quot;Comic Sans MS&quot;&gt;&lt;span style=&quot;font-size: 14px; font-weight: 400;&quot;&gt;Manages the Stock-Exchange for unlisted shares&lt;/span&gt;&lt;/font&gt;&lt;/h1&gt;" style="text;html=1;spacing=5;spacingTop=-20;whiteSpace=wrap;overflow=hidden;strokeColor=none;strokeWidth=3;fillColor=#FFCC99;fontSize=13;fontColor=#000000;align=center;rounded=1;" parent="1" vertex="1">
          <mxGeometry x="453.5" y="-275.5" width="215" height="50" as="geometry" />
        </mxCell>
        <mxCell id="oj4u9hwNBGhO-5t3mCO4-1838" value="&lt;span&gt;lands.sol&lt;/span&gt;" style="shape=offPageConnector;whiteSpace=wrap;html=1;fillColor=#CC6600;fontSize=15;fontColor=#FFFFFF;size=0.5093750000000015;verticalAlign=top;strokeColor=none;" parent="1" vertex="1">
          <mxGeometry x="711.5" y="-250.5" width="160" height="40" as="geometry" />
        </mxCell>
        <mxCell id="oj4u9hwNBGhO-5t3mCO4-1839" value="&lt;span&gt;nfts.sol&lt;/span&gt;" style="shape=offPageConnector;whiteSpace=wrap;html=1;fillColor=#CC6600;fontSize=15;fontColor=#FFFFFF;size=0.4178571428571445;flipV=1;verticalAlign=bottom;strokeColor=none;spacingBottom=4;" parent="1" vertex="1">
          <mxGeometry x="938.5" y="-165.5" width="160" height="35" as="geometry" />
        </mxCell>
        <mxCell id="oj4u9hwNBGhO-5t3mCO4-1840" value="" style="ellipse;whiteSpace=wrap;html=1;fillColor=#61BAFF;fontSize=28;fontColor=#004D99;strokeWidth=3;strokeColor=#004D99;" parent="1" vertex="1">
          <mxGeometry x="781.5" y="-195.5" width="20" height="20" as="geometry" />
        </mxCell>
        <mxCell id="oj4u9hwNBGhO-5t3mCO4-1841" value="" style="ellipse;whiteSpace=wrap;html=1;fillColor=#61BAFF;fontSize=28;fontColor=#004D99;strokeWidth=3;strokeColor=#004D99;" parent="1" vertex="1">
          <mxGeometry x="1008.5" y="-195.5" width="20" height="20" as="geometry" />
        </mxCell>
        <mxCell id="oj4u9hwNBGhO-5t3mCO4-1842" value="&lt;h1 style=&quot;line-height: 54%;&quot;&gt;&lt;font face=&quot;Comic Sans MS&quot;&gt;&lt;span style=&quot;font-size: 14px; font-weight: 400;&quot;&gt;Manages the Land Registry System employed in the platform&lt;/span&gt;&lt;/font&gt;&lt;/h1&gt;" style="text;html=1;spacing=5;spacingTop=-20;whiteSpace=wrap;overflow=hidden;strokeColor=none;strokeWidth=3;fillColor=#FFCC99;fontSize=13;fontColor=#000000;align=center;rounded=1;" parent="1" vertex="1">
          <mxGeometry x="685" y="-160.5" width="215" height="80" as="geometry" />
        </mxCell>
        <mxCell id="oj4u9hwNBGhO-5t3mCO4-1843" value="&lt;h1 style=&quot;line-height: 54%;&quot;&gt;&lt;font face=&quot;Comic Sans MS&quot;&gt;&lt;span style=&quot;font-size: 14px; font-weight: 400;&quot;&gt;Manages the NFT metadata employed on the platform&lt;/span&gt;&lt;/font&gt;&lt;/h1&gt;" style="text;html=1;spacing=5;spacingTop=-20;whiteSpace=wrap;overflow=hidden;strokeColor=none;strokeWidth=3;fillColor=#FFCC99;fontSize=13;fontColor=#000000;align=center;rounded=1;gradientColor=none;" parent="1" vertex="1">
          <mxGeometry x="911" y="-275.5" width="215" height="50" as="geometry" />
        </mxCell>
        <mxCell id="oj4u9hwNBGhO-5t3mCO4-1844" value="&lt;span&gt;tokens,sol&lt;/span&gt;" style="shape=offPageConnector;whiteSpace=wrap;html=1;fillColor=#CC6600;fontSize=15;fontColor=#FFFFFF;size=0.5;verticalAlign=top;strokeColor=none;" parent="1" vertex="1">
          <mxGeometry x="1177.5" y="-250.5" width="160" height="40" as="geometry" />
        </mxCell>
        <mxCell id="oj4u9hwNBGhO-5t3mCO4-1845" value="" style="ellipse;whiteSpace=wrap;html=1;fillColor=#61BAFF;fontSize=28;fontColor=#004D99;strokeWidth=3;strokeColor=#004D99;" parent="1" vertex="1">
          <mxGeometry x="1247.5" y="-195.5" width="20" height="20" as="geometry" />
        </mxCell>
        <mxCell id="oj4u9hwNBGhO-5t3mCO4-1846" value="&lt;h1 style=&quot;line-height: 54%;&quot;&gt;&lt;font face=&quot;Comic Sans MS&quot;&gt;&lt;span style=&quot;font-size: 14px; font-weight: 400;&quot;&gt;Manages the tokens obtained by the investor and reward system&lt;/span&gt;&lt;/font&gt;&lt;/h1&gt;" style="text;html=1;spacing=5;spacingTop=-20;whiteSpace=wrap;overflow=hidden;strokeColor=none;strokeWidth=3;fillColor=#FFCC99;fontSize=13;fontColor=#000000;align=center;rounded=1;" parent="1" vertex="1">
          <mxGeometry x="1151" y="-160.5" width="215" height="80" as="geometry" />
        </mxCell>
        <mxCell id="oj4u9hwNBGhO-5t3mCO4-1847" value="" style="line;strokeWidth=2;html=1;fillColor=none;fontSize=28;fontColor=#004D99;strokeColor=#331A00;" parent="1" vertex="1">
          <mxGeometry x="-220" y="-190.5" width="1580" height="10" as="geometry" />
        </mxCell>
        <mxCell id="oj4u9hwNBGhO-5t3mCO4-1855" value="&lt;b&gt;Third Party APIs/Libraries:&lt;br&gt;&lt;/b&gt;&lt;p style=&quot;text-indent: 0in; line-height: normal; margin: 0pt 0in; direction: ltr; unicode-bidi: embed;&quot;&gt;Web3.js, Desmos API, Google&lt;br&gt;Maps API, ParticleJS, TurfJS, DownloadJS&lt;/p&gt;" style="whiteSpace=wrap;html=1;fontSize=14;fillColor=#f5af58;strokeColor=none;fontColor=#FFFFFF;rounded=1;shadow=0;labelBackgroundColor=none;strokeWidth=3;spacing=5;arcSize=7;" parent="1" vertex="1">
          <mxGeometry x="-130" y="97" width="232.5" height="75.25" as="geometry" />
        </mxCell>
        <mxCell id="fHKddjJ4R96vvE8QsRok-1793" value="&lt;font color=&quot;#ffffff&quot;&gt;&lt;span style=&quot;font-size: 30px;&quot;&gt;&lt;b&gt;User Roles&lt;/b&gt;&lt;/span&gt;&lt;/font&gt;" style="shape=hexagon;perimeter=hexagonPerimeter2;whiteSpace=wrap;html=1;shadow=0;labelBackgroundColor=none;strokeColor=#FFB366;fillColor=#FFB366;gradientColor=none;fontFamily=Helvetica;fontSize=23;fontColor=#23445d;align=center;strokeWidth=3;" vertex="1" parent="1">
          <mxGeometry x="824" y="76" width="260" height="184" as="geometry" />
        </mxCell>
        <mxCell id="fHKddjJ4R96vvE8QsRok-1794" value="" style="triangle;whiteSpace=wrap;html=1;shadow=0;labelBackgroundColor=none;strokeColor=none;fillColor=#FFFFFF;fontFamily=Helvetica;fontSize=17;fontColor=#23445d;align=center;rotation=90;gradientColor=none;flipV=1;flipH=1;opacity=20;" vertex="1" parent="1">
          <mxGeometry x="713.5" y="12.666666666666515" width="72" height="152" as="geometry" />
        </mxCell>
        <mxCell id="fHKddjJ4R96vvE8QsRok-1795" value="&lt;font style=&quot;font-size: 15px;&quot;&gt;ADMIN:&lt;br style=&quot;font-size: 15px;&quot;&gt;&lt;p style=&quot;line-height: normal; margin-top: 0pt; margin-bottom: 0pt; margin-right: 0in; text-indent: 0in; unicode-bidi: embed; font-size: 15px;&quot;&gt;1. Verification &amp;amp;&lt;/p&gt;&lt;p style=&quot;line-height: normal; margin-top: 0pt; margin-bottom: 0pt; margin-right: 0in; text-indent: 0in; unicode-bidi: embed; font-size: 15px;&quot;&gt;Admission of new&lt;br style=&quot;font-size: 15px;&quot;&gt;users/admins&lt;/p&gt;&lt;p style=&quot;line-height: normal; margin-top: 0pt; margin-bottom: 0pt; margin-right: 0in; text-indent: 0in; unicode-bidi: embed; font-size: 15px;&quot;&gt;&lt;span style=&quot;text-indent: 0in; background-color: initial; font-size: 15px;&quot;&gt;2. View all users’ details&lt;/span&gt;&lt;/p&gt;&lt;p style=&quot;line-height: normal; margin-top: 0pt; margin-bottom: 0pt; margin-right: 0in; text-indent: 0in; unicode-bidi: embed; font-size: 15px;&quot;&gt;3. Broadcast&lt;/p&gt;&lt;p style=&quot;line-height: normal; margin-top: 0pt; margin-bottom: 0pt; margin-right: 0in; text-indent: 0in; unicode-bidi: embed; font-size: 15px;&quot;&gt;Announcements&lt;/p&gt;&lt;p style=&quot;line-height: normal; margin-top: 0pt; margin-bottom: 0pt; margin-right: 0in; text-indent: 0in; unicode-bidi: embed; font-size: 15px;&quot;&gt;or chat with&amp;nbsp;&lt;span style=&quot;text-indent: 0in; background-color: initial; font-size: 15px;&quot;&gt;users&lt;/span&gt;&lt;/p&gt;&lt;/font&gt;" style="shape=hexagon;perimeter=hexagonPerimeter2;whiteSpace=wrap;html=1;shadow=0;labelBackgroundColor=none;strokeColor=#FFB366;fillColor=#ffffff;gradientColor=none;fontFamily=Helvetica;fontSize=15;fontColor=#663300;align=center;strokeWidth=3;" vertex="1" parent="1">
          <mxGeometry x="826" y="-60" width="260" height="148.87" as="geometry" />
        </mxCell>
        <mxCell id="fHKddjJ4R96vvE8QsRok-1796" value="&lt;font style=&quot;font-size: 15px;&quot;&gt;&lt;br style=&quot;font-size: 15px;&quot;&gt;IDEATOR:&lt;br style=&quot;font-size: 15px;&quot;&gt;&lt;br style=&quot;font-size: 15px;&quot;&gt;&lt;span style=&quot;text-indent: 0in; background-color: initial; font-size: 15px;&quot;&gt;1. Network Inspection&lt;br style=&quot;font-size: 15px;&quot;&gt;&lt;/span&gt;&lt;span style=&quot;text-indent: 0in; background-color: initial; font-size: 15px;&quot;&gt;2.Offer shares of a company &amp;amp; gathers investors&lt;br style=&quot;font-size: 15px;&quot;&gt;&lt;/span&gt;&lt;span style=&quot;text-indent: 0in; background-color: initial; font-size: 15px;&quot;&gt;3. Chat with investors&lt;br style=&quot;font-size: 15px;&quot;&gt;or other&lt;br style=&quot;font-size: 15px;&quot;&gt;ideators&lt;/span&gt;&lt;span style=&quot;text-align: right; text-indent: 0in; background-color: initial; font-size: 15px;&quot;&gt;&lt;br style=&quot;font-size: 15px;&quot;&gt;&lt;/span&gt;&lt;/font&gt;" style="shape=hexagon;perimeter=hexagonPerimeter2;whiteSpace=wrap;html=1;shadow=0;labelBackgroundColor=none;strokeColor=#FFB366;fillColor=#FFFFFF;gradientColor=none;fontFamily=Helvetica;fontSize=15;fontColor=#663300;align=center;strokeWidth=3;rotation=0;" vertex="1" parent="1">
          <mxGeometry x="1022.8" y="10" width="227" height="166.81" as="geometry" />
        </mxCell>
        <mxCell id="fHKddjJ4R96vvE8QsRok-1798" value="VENDOR:&lt;br style=&quot;font-size: 15px;&quot;&gt;1.&amp;nbsp;Network Inspection&lt;br style=&quot;font-size: 15px;&quot;&gt;2.&amp;nbsp;Mint Digital arts/ photographs&lt;br&gt;as NFTs &amp;amp; sell them&lt;br style=&quot;font-size: 15px;&quot;&gt;3.&amp;nbsp;Chat with investors&lt;br style=&quot;font-size: 15px;&quot;&gt;or other vendors" style="shape=hexagon;perimeter=hexagonPerimeter2;whiteSpace=wrap;html=1;shadow=0;labelBackgroundColor=none;strokeColor=#FFB366;fillColor=#FFFFFF;gradientColor=none;fontFamily=Helvetica;fontSize=15;fontColor=#663300;align=center;strokeWidth=3;rotation=0;" vertex="1" parent="1">
          <mxGeometry x="1016" y="179.80999999999995" width="235.57" height="157" as="geometry" />
        </mxCell>
        <mxCell id="fHKddjJ4R96vvE8QsRok-1799" value="&lt;font style=&quot;font-size: 15px;&quot;&gt;&lt;font style=&quot;font-size: 15px;&quot;&gt;REGISTRAR:&lt;br style=&quot;font-size: 15px;&quot;&gt;1.&amp;nbsp;&lt;/font&gt;Network Inspection&lt;br style=&quot;font-size: 15px;&quot;&gt;2.&amp;nbsp;Verify registrations/&lt;br style=&quot;font-size: 15px;&quot;&gt;transfers of ownership&lt;br style=&quot;font-size: 15px;&quot;&gt;3.&amp;nbsp;Chat with investors to suggest changes in&lt;br style=&quot;font-size: 15px;&quot;&gt;their applications&lt;/font&gt;" style="shape=hexagon;perimeter=hexagonPerimeter2;whiteSpace=wrap;html=1;shadow=0;labelBackgroundColor=none;strokeColor=#FFB366;fillColor=#FFFFFF;gradientColor=none;fontFamily=Helvetica;fontSize=15;fontColor=#663300;align=center;strokeWidth=3;" vertex="1" parent="1">
          <mxGeometry x="824" y="253.67000000000007" width="249.76" height="165.33" as="geometry" />
        </mxCell>
        <mxCell id="fHKddjJ4R96vvE8QsRok-1800" value="&lt;font style=&quot;font-size: 15px;&quot;&gt;INVESTOR:&lt;br style=&quot;font-size: 15px;&quot;&gt;1.&amp;nbsp;&lt;/font&gt;Network Inspection&lt;br style=&quot;font-size: 15px;&quot;&gt;2.&amp;nbsp;Invest upon shares,&lt;br style=&quot;font-size: 15px;&quot;&gt;real-estate &amp;amp;&amp;nbsp;NFTs&lt;br style=&quot;font-size: 15px;&quot;&gt;3.&amp;nbsp;Chat with users&lt;br style=&quot;font-size: 15px;&quot;&gt;4.&amp;nbsp;Collect Tokens&lt;br style=&quot;font-size: 15px;&quot;&gt;for rewards" style="shape=hexagon;perimeter=hexagonPerimeter2;whiteSpace=wrap;html=1;shadow=0;labelBackgroundColor=none;strokeColor=#FFB366;fillColor=#FFFFFF;gradientColor=none;fontFamily=Helvetica;fontSize=15;fontColor=#663300;align=center;strokeWidth=3;" vertex="1" parent="1">
          <mxGeometry x="650" y="173" width="241.84" height="162" as="geometry" />
        </mxCell>
        <mxCell id="fHKddjJ4R96vvE8QsRok-1801" value="SUPER-ADMIN:&lt;br style=&quot;font-size: 15px;&quot;&gt;&lt;br style=&quot;font-size: 15px;&quot;&gt;Manages the platform from development standpoint" style="shape=hexagon;perimeter=hexagonPerimeter2;whiteSpace=wrap;html=1;shadow=0;labelBackgroundColor=none;strokeColor=#FFB366;fillColor=#ffffff;gradientColor=none;fontFamily=Helvetica;fontSize=15;fontColor=#663300;align=center;strokeWidth=3;" vertex="1" parent="1">
          <mxGeometry x="656" y="10" width="231.09" height="162.67" as="geometry" />
        </mxCell>
        <mxCell id="fHKddjJ4R96vvE8QsRok-1802" value="" style="triangle;whiteSpace=wrap;html=1;shadow=0;labelBackgroundColor=none;strokeColor=none;fillColor=#FFB366;fontFamily=Helvetica;fontSize=17;fontColor=#23445d;align=center;rotation=33;gradientColor=none;strokeWidth=3;" vertex="1" parent="1">
          <mxGeometry x="1052.5900000000001" y="20.670000000000073" width="24.41" height="66.2" as="geometry" />
        </mxCell>
        <mxCell id="fHKddjJ4R96vvE8QsRok-1803" value="" style="triangle;whiteSpace=wrap;html=1;shadow=0;labelBackgroundColor=none;strokeColor=none;fillColor=#FFB366;fontFamily=Helvetica;fontSize=17;fontColor=#23445d;align=center;rotation=39;gradientColor=none;flipH=1;strokeWidth=3;" vertex="1" parent="1">
          <mxGeometry x="840.79" y="248.1500000000001" width="25.58" height="73" as="geometry" />
        </mxCell>
        <mxCell id="fHKddjJ4R96vvE8QsRok-1804" value="" style="triangle;whiteSpace=wrap;html=1;shadow=0;labelBackgroundColor=none;strokeColor=none;fillColor=#FFB366;fontFamily=Helvetica;fontSize=17;fontColor=#23445d;align=center;rotation=321;gradientColor=none;strokeWidth=3;" vertex="1" parent="1">
          <mxGeometry x="860.6199999999999" y="15.329999999999927" width="16.41" height="73" as="geometry" />
        </mxCell>
        <mxCell id="fHKddjJ4R96vvE8QsRok-1805" value="" style="triangle;whiteSpace=wrap;html=1;shadow=0;labelBackgroundColor=none;strokeColor=none;fillColor=#FFB366;fontFamily=Helvetica;fontSize=17;fontColor=#23445d;align=center;rotation=321;gradientColor=none;flipH=1;strokeWidth=3;" vertex="1" parent="1">
          <mxGeometry x="1016.0000000000001" y="263.8099999999999" width="26.88" height="73" as="geometry" />
        </mxCell>
        <mxCell id="fHKddjJ4R96vvE8QsRok-1806" value="" style="triangle;whiteSpace=wrap;html=1;shadow=0;labelBackgroundColor=none;strokeColor=none;fillColor=#FFB366;fontFamily=Helvetica;fontSize=17;fontColor=#23445d;align=center;rotation=90;gradientColor=none;strokeWidth=3;" vertex="1" parent="1">
          <mxGeometry x="1117" y="154" width="21" height="73" as="geometry" />
        </mxCell>
        <mxCell id="fHKddjJ4R96vvE8QsRok-1807" value="" style="triangle;whiteSpace=wrap;html=1;shadow=0;labelBackgroundColor=none;strokeColor=none;fillColor=#FFB366;fontFamily=Helvetica;fontSize=17;fontColor=#23445d;align=center;rotation=90;gradientColor=none;flipH=1;strokeWidth=3;" vertex="1" parent="1">
          <mxGeometry x="758.8199999999999" y="125.19000000000005" width="26.21" height="73" as="geometry" />
        </mxCell>
        <mxCell id="fHKddjJ4R96vvE8QsRok-1810" value="" style="ellipse;whiteSpace=wrap;html=1;rounded=0;shadow=0;comic=0;strokeWidth=1;fontFamily=Verdana;fontSize=14;strokeColor=none;fillColor=#990000;gradientColor=#FF6666;gradientDirection=south;" vertex="1" parent="1">
          <mxGeometry x="-330" y="362" width="500" height="500" as="geometry" />
        </mxCell>
        <mxCell id="fHKddjJ4R96vvE8QsRok-1811" value="Reward System based on Tokens acquired" style="ellipse;whiteSpace=wrap;html=1;rounded=0;shadow=0;comic=0;strokeWidth=1;fontFamily=Verdana;fontSize=22;strokeColor=none;fillColor=#ffffff;fontColor=#CC0000;fontStyle=1" vertex="1" parent="1">
          <mxGeometry x="-210" y="482" width="260" height="260" as="geometry" />
        </mxCell>
        <mxCell id="fHKddjJ4R96vvE8QsRok-1812" value="TITAN" style="shadow=0;dashed=0;html=1;strokeColor=none;fillColor=none;labelPosition=center;verticalLabelPosition=bottom;verticalAlign=top;shape=mxgraph.office.users.users;rounded=0;comic=0;fontFamily=Verdana;fontSize=14;fontColor=#FFFFFF;" vertex="1" parent="1">
          <mxGeometry x="-280" y="670" width="46" height="50" as="geometry" />
        </mxCell>
        <mxCell id="fHKddjJ4R96vvE8QsRok-1813" value="XANDAR" style="shadow=0;dashed=0;html=1;strokeColor=none;fillColor=none;labelPosition=center;verticalLabelPosition=bottom;verticalAlign=top;shape=mxgraph.office.users.call_center_agent;rounded=0;comic=0;fontFamily=Verdana;fontSize=14;fontColor=#FFFFFF;" vertex="1" parent="1">
          <mxGeometry x="78" y="665" width="46" height="55" as="geometry" />
        </mxCell>
        <mxCell id="fHKddjJ4R96vvE8QsRok-1814" value="ADAMANT" style="shadow=0;dashed=0;html=1;strokeColor=none;fillColor=none;labelPosition=center;verticalLabelPosition=bottom;verticalAlign=top;shape=mxgraph.office.servers.on_premises_server;rounded=0;comic=0;fontFamily=Verdana;fontSize=14;fontColor=#FFFFFF;" vertex="1" parent="1">
          <mxGeometry x="80" y="513" width="44" height="58" as="geometry" />
        </mxCell>
        <mxCell id="fHKddjJ4R96vvE8QsRok-1815" value="SAKAAR" style="shadow=0;dashed=0;html=1;strokeColor=none;fillColor=none;labelPosition=center;verticalLabelPosition=bottom;verticalAlign=top;shape=mxgraph.office.security.token_service;rounded=0;comic=0;fontFamily=Verdana;fontSize=14;fontColor=#FFFFFF;" vertex="1" parent="1">
          <mxGeometry x="-190" y="741" width="60" height="56" as="geometry" />
        </mxCell>
        <mxCell id="fHKddjJ4R96vvE8QsRok-1816" value="MORAG" style="shadow=0;dashed=0;html=1;strokeColor=none;fillColor=none;labelPosition=center;verticalLabelPosition=bottom;verticalAlign=top;shape=mxgraph.office.concepts.on_premises;rounded=0;comic=0;fontFamily=Verdana;fontSize=14;fontColor=#FFFFFF;" vertex="1" parent="1">
          <mxGeometry x="-17" y="741" width="34" height="55" as="geometry" />
        </mxCell>
        <mxCell id="fHKddjJ4R96vvE8QsRok-1817" value="URU" style="shadow=0;dashed=0;html=1;strokeColor=none;fillColor=none;labelPosition=center;verticalLabelPosition=bottom;verticalAlign=top;shape=mxgraph.office.concepts.globe_internet;rounded=0;comic=0;fontFamily=Verdana;fontSize=14;fontColor=#FFFFFF;movable=1;resizable=1;rotatable=1;deletable=1;editable=1;locked=0;connectable=1;container=0;" vertex="1" parent="1">
          <mxGeometry x="-280" y="522" width="49" height="49" as="geometry" />
        </mxCell>
        <mxCell id="fHKddjJ4R96vvE8QsRok-1818" value="VIBRAN" style="shadow=0;dashed=0;html=1;strokeColor=none;shape=mxgraph.mscae.general.continuous_cycle;fillColor=none;rounded=0;comic=0;fontFamily=Verdana;fontSize=14;fontColor=#FFFFFF;verticalAlign=top;labelPosition=center;verticalLabelPosition=bottom;align=center;" vertex="1" parent="1">
          <mxGeometry x="-190" y="402" width="48" height="50" as="geometry" />
        </mxCell>
        <mxCell id="fHKddjJ4R96vvE8QsRok-1819" value="KRYPTON" style="shape=mxgraph.signs.travel.euro;html=1;fillColor=none;strokeColor=none;verticalLabelPosition=bottom;verticalAlign=top;align=center;rounded=0;shadow=0;dashed=0;comic=0;fontFamily=Verdana;fontSize=14;fontColor=#FFFFFF;" vertex="1" parent="1">
          <mxGeometry x="-17" y="402" width="45" height="51" as="geometry" />
        </mxCell>
        <mxCell id="fHKddjJ4R96vvE8QsRok-1820" value="" style="shape=image;verticalLabelPosition=bottom;labelBackgroundColor=default;verticalAlign=top;aspect=fixed;imageAspect=0;image=data:image/svg+xml,PHN2ZyB4bWxucz0iaHR0cDovL3d3dy53My5vcmcvMjAwMC9zdmciIGlkPSJfMDI1X1NDSUVOQ0UiIGRhdGEtbmFtZT0iMDI1X1NDSUVOQ0UiIHZpZXdCb3g9IjAgMCAyNCAyNCIgZmlsbD0id2hpdGUiPjxwYXRoIGQ9Ik0xMiwyMkExMCwxMCwwLDAsMSw1LDQuODcsMSwxLDAsMSwxLDYuMzksNi4zYTgsOCwwLDEsMCwzLTEuODYsMSwxLDAsMCwxLS42NS0xLjg5QTkuODEsOS44MSwwLDAsMSwxMiwyYTEwLDEwLDAsMCwxLDAsMjBaIiBjbGFzcz0iY2xzLTEiLz48cGF0aCBkPSJNMTIsMThhNiw2LDAsMCwxLTYtNiw1Ljc3LDUuNzcsMCwwLDEsLjA5LTEsMSwxLDAsMSwxLDIsLjM0QTMuODIsMy44MiwwLDAsMCw4LDEyLDQsNCwwLDEsMCw5Ljc0LDguNywxLDEsMCwwLDEsOC42MSw3LjA1LDUuOTMsNS45MywwLDAsMSwxMiw2YTYsNiwwLDAsMSwwLDEyWiIgY2xhc3M9ImNscy0xIi8+PHBhdGggZD0iTTEyLDEwYTIsMiwwLDEsMCwyLDJBMiwyLDAsMCwwLDEyLDEwWiIgY2xhc3M9ImNscy0xIi8+PHBhdGggZD0iTTE4LDNhMiwyLDAsMSwwLDIsMkEyLDIsMCwwLDAsMTgsM1oiIGNsYXNzPSJjbHMtMSIvPjxwYXRoIGQ9Ik0xNSwxNGEyLDIsMCwxLDAsMiwyQTIsMiwwLDAsMCwxNSwxNFoiIGNsYXNzPSJjbHMtMSIvPiYjeGE7ICAgICAgICAgICAgICAgICAgICAgICAgICAgICAgICAgICAgICAgICAgICA8L3N2Zz4=;" vertex="1" parent="1">
          <mxGeometry x="76" y="670" width="50" height="50" as="geometry" />
        </mxCell>
        <mxCell id="fHKddjJ4R96vvE8QsRok-1821" value="" style="shape=image;verticalLabelPosition=bottom;labelBackgroundColor=default;verticalAlign=top;aspect=fixed;imageAspect=0;image=data:image/svg+xml,PHN2ZyB4bWxuczp4bGluaz0iaHR0cDovL3d3dy53My5vcmcvMTk5OS94bGluayIgeG1sbnM9Imh0dHA6Ly93d3cudzMub3JnLzIwMDAvc3ZnIiB4bWw6c3BhY2U9InByZXNlcnZlIiBzdHlsZT0iZW5hYmxlLWJhY2tncm91bmQ6bmV3IDAgMCA0Ny4xNjcgNDcuMTY3OyIgdmlld0JveD0iMCAwIDQ3LjE2NyA0Ny4xNjciIGZpbGw9IndoaXRlIj4mI3hhOyAgICAgICAgICAgICAgICAgICAgICAgICAgICAgICAgICAgICAgICAgICAgICAgIDxwYXRoIGQ9Ik00Ni4zNjksMjguNzkzYy0xMS44NTIsNS45MzUtMjYuMjcxLDEuMTM4LTMyLjIwNi0xMC43MTRjLTIuNzQ4LTUuNDg4LTMuMTkxLTExLjUyNC0xLjcwMi0xNy4wMTYgIEMxLjE5Nyw3LjIzNi0zLjI1NSwyMS4yNjMsMi41NDQsMzIuODQ0QzguNDc5LDQ0LjY5NiwyMi44OTgsNDkuNDkzLDM0Ljc1LDQzLjU1OGM2LjM2NC0zLjE4NywxMC42OS04LjgyMSwxMi40MTctMTUuMTkgIEM0Ni45MDMsMjguNTEzLDQ2LjY0LDI4LjY1OCw0Ni4zNjksMjguNzkzeiIvPiYjeGE7ICAgICAgICAgICAgICAgICAgICAgICAgICAgICAgICAgICAgICAgICAgICA8L3N2Zz4=;" vertex="1" parent="1">
          <mxGeometry x="74" y="523" width="50" height="50" as="geometry" />
        </mxCell>
        <mxCell id="fHKddjJ4R96vvE8QsRok-1822" value="" style="shape=image;verticalLabelPosition=bottom;labelBackgroundColor=default;verticalAlign=top;aspect=fixed;imageAspect=0;image=data:image/svg+xml,PHN2ZyB4bWxuczp4bGluaz0iaHR0cDovL3d3dy53My5vcmcvMTk5OS94bGluayIgeG1sbnM9Imh0dHA6Ly93d3cudzMub3JnLzIwMDAvc3ZnIiB4bWw6c3BhY2U9InByZXNlcnZlIiBzdHlsZT0iZW5hYmxlLWJhY2tncm91bmQ6bmV3IDAgMCA1MTEuOTgzIDUxMS45ODM7IiB2aWV3Qm94PSIwIDAgNTExLjk4MyA1MTEuOTgzIiBmaWxsPSJ3aGl0ZSI+JiN4YTsgICAgICAgICAgICAgICAgICAgICAgICAgICAgICAgICAgICAgICAgICAgICAgICA8Zz4mI3hhOyAgICAgICAgICAgICAgICAgICAgICAgICAgICAgICAgICAgICAgICAgICAgICAgICAgICA8cGF0aCBkPSJNMTI1LjQ5MSwyNjcuMDIxYy0zLjMzNy0zLjMzNy04LjczLTMuMzM3LTEyLjA2NiwwYy0yNS4zMDEsMjUuMjkzLTI1LjgxMyw1My4wOTQtMS43MDcsNzguNTA3bC01My44OTYsNTMuODg4ICAgICBsLTguODY2LTguNzk4Yy02LjY0Ny02LjY1Ni0xNy40NjgtNi42NzMtMjQuMDk4LTAuMDQzTDQuOTkyLDQxMC40NDljLTYuNjU2LDYuNjQ3LTYuNjU2LDE3LjQ3NiwwLDI0LjEzMmw3Mi4zOTcsNzIuNDA1ICAgICBjMy4zMjgsMy4zMjgsNy43MDYsNC45OTIsMTIuMDc1LDQuOTkyYzQuMzY5LDAsOC43NDctMS42NjQsMTIuMDY2LTQuOTkybDE5Ljg2Ni0xOS44NTdjMy40ODItMy40ODIsNS4xNjMtOC4zNDYsNC42MjUtMTMuMzQ2ICAgICBjLTAuNDk1LTQuNTgyLTIuNzU2LTguOTk0LTYuNTM2LTEyLjc3NGwtNi45MTItNi44NzhsNTMuODM3LTUzLjgyOGMyNS43NjIsMjQuNTI1LDUyLjg3MywyMy45MjcsNzguNTQ5LTEuNzQ5ICAgICBjMy4zMzctMy4zMzcsMy4zMzctOC43MywwLTEyLjA2NkwxMjUuNDkxLDI2Ny4wMjF6IE0xNzYuNjQ5LDM4Ni40NDVsLTQuMzAxLTQuMjQxYy0zLjMzNi0zLjI4NS04LjY5NS0zLjI2OC0xMi4wMjMsMC4wNDMgICAgIGwtNTkuODM2LDU5Ljg0NEw4Ny4wNCw0MjguNzAyYy0zLjMzNi0zLjMyOC04LjczLTMuMzExLTEyLjA3NSwwLjAyNmMtMy4zMjgsMy4zMzctMy4zMTEsOC43MzgsMC4wMjYsMTIuMDY2bDMyLjQzNSwzMi4yOTkgICAgIGMxLjI2MywxLjI1NCwxLjU4NywyLjIzNiwxLjg2LDIuMDE0bC0xOS44MzEsMTkuODE0bC03Mi4zOTctNzIuNDA1bDE5Ljg1Ny0xOS44MDZsMTQuOTI1LDE0LjgxNCAgICAgYzMuMzI4LDMuMzAyLDguNzIxLDMuMjk0LDEyLjA0MS0wLjAyNmw1OS44MjctNTkuODM2bDE1LjMxNywxNS4zNTJjMy4zMzcsMy4zMzcsOC43MywzLjMzNywxMi4wNjYsMC4wMTcgICAgIGMzLjM0NS0zLjMyOCwzLjM0NS04LjczOCwwLjAxNy0xMi4wNzVsLTI1LjYxNy0yNS42NjhjLTkuNTkxLTkuNi0xNC40NzMtMTkuMDIxLTE0LjQ5OC0yOC4wMjMgICAgIGMtMC4wMTctNy4wNDksMi45MzUtMTQuMzYyLDguNzk4LTIxLjgwM2wxMDYuNzUyLDEwNi43NDNDMjA5LjYwNCw0MDUuNjc5LDE5My45NzEsNDAzLjc4NSwxNzYuNjQ5LDM4Ni40NDV6Ii8+JiN4YTsgICAgICAgICAgICAgICAgICAgICAgICAgICAgICAgICAgICAgICAgICAgICAgICAgICAgPHBhdGggZD0iTTI4Ny42MjUsMTc2LjY4N0w0MzAuOTMzLDMzLjM3OGw0NS43NzMtMTAuMTcyTDMwNS40MjUsMTk0LjQ4N2MtMy4zMzcsMy4zMzctMy4zMzcsOC43MywwLDEyLjA2NiAgICAgYzEuNjY0LDEuNjY0LDMuODQ5LDIuNSw2LjAzMywyLjVjMi4xODUsMCw0LjM2OS0wLjgzNiw2LjAzMy0yLjVMNDg4Ljc2NCwzNS4yODFsLTEwLjE2Myw0NS43NjRMMzM1LjI5MiwyMjQuMzU0ICAgICBjLTMuMzM3LDMuMzM3LTMuMzM3LDguNzMsMCwxMi4wNjZjMS42NjQsMS42NjQsMy44NDksMi41LDYuMDMzLDIuNWMyLjE4NSwwLDQuMzY5LTAuODM2LDYuMDMzLTIuNUw0OTIuNDI1LDkxLjM1NCAgICAgYzEuMTUyLTEuMTQzLDEuOTQ2LTIuNTk0LDIuMzA0LTQuMTgxbDE3LjA2Ny03Ni44YzAuMTExLTAuNTIxLDAuMTItMS4wNSwwLjEzNy0xLjU3YzAuMDA5LTAuMTI4LDAuMDQzLTAuMjU2LDAuMDQzLTAuMzg0ICAgICBjLTAuMDE3LTAuOTczLTAuMjEzLTEuOTExLTAuNTQ2LTIuODE2Yy0wLjA3Ny0wLjIwNS0wLjE3MS0wLjM5My0wLjI2NS0wLjU4OWMtMC40MTgtMC45MjItMC45MzktMS43OTItMS42NzMtMi41MjYgICAgIGMtMC43MzQtMC43MzQtMS42MDQtMS4yNTQtMi41MTctMS42NzNjLTAuMjA1LTAuMDk0LTAuMzkzLTAuMTg4LTAuNTk3LTAuMjY1Yy0wLjkwNC0wLjMyNC0xLjg0My0wLjUyOS0yLjgwNy0wLjU0NiAgICAgYy0wLjE0NSwwLTAuMjczLDAuMDM0LTAuNDE4LDAuMDQzYy0wLjUyMSwwLjAxNy0xLjAzMywwLjAzNC0xLjU0NCwwLjE0NWwtNzYuOCwxNy4wNjdjLTEuNTc5LDAuMzUtMy4wMjksMS4xNDMtNC4xODEsMi4yOTUgICAgIEwyNzUuNTU4LDE2NC42MjFjLTMuMzM3LDMuMzM3LTMuMzM3LDguNzMsMCwxMi4wNjZTMjg0LjI4OCwxODAuMDIzLDI4Ny42MjUsMTc2LjY4N3oiLz4mI3hhOyAgICAgICAgICAgICAgICAgICAgICAgICAgICAgICAgICAgICAgICAgICAgICAgICAgICA8cGF0aCBkPSJNNTA2Ljk5MSw0MTAuNDQ5bC0xOS44NTctMTkuODY2Yy02LjAwNy02LjAxNi0xNi45MjItNy4yOTYtMjYuMTI5LDEuOTJsLTYuODYxLDYuODk1bC01My44MzctNTMuODI4ICAgICBjMjQuNTE2LTI1Ljc1NCwyMy45MzYtNTIuODY0LTEuNzQ5LTc4LjU0OWMtMy4zMzctMy4zMzctOC43My0zLjMzNy0xMi4wNjYsMEwyNjcuMDI1LDM4Ni40ODdjLTMuMzM3LDMuMzM3LTMuMzM3LDguNzMsMCwxMi4wNjYgICAgIGMyNS4zMDEsMjUuMzAxLDUzLjExMSwyNS44MTMsNzguNTA3LDEuNzA3bDUzLjg5Nyw1My44OTdsLTguODA2LDguODY2Yy02LjY1Niw2LjY1Ni02LjY3MywxNy40NjgtMC4wMzQsMjQuMDk4bDE5Ljg2NiwxOS44NjYgICAgIGMzLjMxOSwzLjMyOCw3LjY5Nyw0Ljk5MiwxMi4wNjYsNC45OTJzOC43NDctMS42NjQsMTIuMDc1LTQuOTkybDcyLjM5Ny03Mi4zOTdDNTEzLjY0Nyw0MjcuOTM0LDUxMy42NDcsNDE3LjA5Nyw1MDYuOTkxLDQxMC40NDkgICAgIHogTTQyMi41MTksNDk0LjkyMWwtMTkuODA2LTE5Ljg1N2wxNC44MTQtMTQuOTI1YzMuMzAyLTMuMzM3LDMuMjk0LTguNzIxLTAuMDI2LTEyLjA0MWwtNTkuODM2LTU5LjgzNmwxNS4zNTItMTUuMzA5ICAgICBjMy4zNDUtMy4zMjgsMy4zNDUtOC43MywwLjAxNy0xMi4wNzVjLTMuMzM2LTMuMzI4LTguNzM4LTMuMzM3LTEyLjA2Ni0wLjAwOWwtMjUuNjc3LDI1LjYxNyAgICAgYy05LjYsOS41OTEtMTkuMDI5LDE0LjQ3My0yOC4wMjMsMTQuNDk4aC0wLjA3N2MtNy4wMjMsMC0xNC4zMS0yLjk1My0yMS43MjYtOC44MDZsMTA2Ljc0My0xMDYuNzM1ICAgICBjMTMuNDgzLDE2LjkyMiwxMS41NjMsMzIuNTU1LTUuNzY5LDQ5Ljg4NmwtNC4yMzMsNC4zMDFjLTMuMjg1LDMuMzQ1LTMuMjY4LDguNzEzLDAuMDUxLDEyLjAyM2w1OS44MzYsNTkuODM2bC0xMy4zOTcsMTMuNDQ5ICAgICBjLTMuMzE5LDMuMzM2LTMuMzAyLDguNzQ3LDAuMDI2LDEyLjA2NmMzLjM1NCwzLjMzNyw4Ljc0NywzLjMxOSwxMi4wNzUtMC4wMjZsMzIuMjktMzIuNDI3YzEuMjYzLTEuMjU0LDIuMjE5LTEuNTg3LDIuMDIyLTEuODYgICAgIGwxOS44MTQsMTkuODMxTDQyMi41MTksNDk0LjkyMXoiLz4mI3hhOyAgICAgICAgICAgICAgICAgICAgICAgICAgICAgICAgICAgICAgICAgICAgICAgICAgICA8cGF0aCBkPSJNMjgxLjU5MSwzNDkuODU0YzIuMTg1LDAsNC4zNjktMC44MzYsNi4wMzMtMi41YzMuMzM2LTMuMzM3LDMuMzM2LTguNzMsMC0xMi4wNjZMMzMuMzgyLDgxLjA0NUwyMy4yMTksMzUuMjgxICAgICBsMjgyLjIwNiwyODIuMjA2YzEuNjY0LDEuNjY0LDMuODQ5LDIuNSw2LjAzMywyLjVjMi4xODUsMCw0LjM2OS0wLjgzNiw2LjAzMy0yLjVjMy4zMzctMy4zMzcsMy4zMzctOC43MywwLTEyLjA2NkwzNS4yNzcsMjMuMjA2ICAgICBMODEuMDUsMzMuMzc4TDMzNS4yOTIsMjg3LjYyYzMuMzM3LDMuMzM3LDguNzMsMy4zMzcsMTIuMDY2LDBjMy4zMzYtMy4zMzcsMy4zMzYtOC43MywwLTEyLjA2NmwtMjU2LTI1NiAgICAgYy0xLjE1Mi0xLjE1Mi0yLjYwMy0xLjk0Ni00LjE4MS0yLjI5NWwtNzYuOC0xNy4wNjdDOS44NjUsMC4wODEsOS4zNTMsMC4wNjQsOC44MzIsMC4wNDdDOC42ODcsMC4wMzgsOC41NTksMC4wMDQsOC40MTQsMC4wMDQgICAgIEM3LjQ0MSwwLjAyMSw2LjUxMSwwLjIyNiw1LjYwNiwwLjU1QzUuNDAyLDAuNjI3LDUuMjE0LDAuNzIxLDUuMDE4LDAuODE1Yy0wLjkyMiwwLjQxLTEuNzkyLDAuOTM5LTIuNTI2LDEuNjczICAgICBDMS43NTgsMy4yMjEsMS4yMjksNC4wOTIsMC44MTksNS4wMTNDMC43MjUsNS4yMSwwLjYzMSw1LjM5NywwLjU1NSw1LjYwMkMwLjIyMiw2LjUwNywwLjAyNiw3LjQ0NSwwLjAwOSw4LjQxOCAgICAgYzAsMC4xMjgsMC4wMzQsMC4yNTYsMC4wNDMsMC4zODRjMC4wMTcsMC41MjEsMC4wMjYsMS4wNSwwLjEzNywxLjU3bDE3LjA2Nyw3Ni44YzAuMzU4LDEuNTg3LDEuMTUyLDMuMDM4LDIuMzA0LDQuMTgxICAgICBsMTY0LjYzNCwxNjQuNjM0bC0xOS41NjcsMTkuNTY3Yy0zLjMzNywzLjMzNy0zLjMzNyw4LjczLDAsMTIuMDY2YzEuNjY0LDEuNjY0LDMuODQ5LDIuNSw2LjAzMywyLjVzNC4zNjktMC44MzYsNi4wMzMtMi41ICAgICBsMTkuNTY3LTE5LjU2N2wxNy44LDE3LjgwMWwtMTkuNTY3LDE5LjU2N2MtMy4zMzcsMy4zMzYtMy4zMzcsOC43MywwLDEyLjA2NmMxLjY2NCwxLjY2NCwzLjg0OSwyLjUsNi4wMzMsMi41ICAgICBjMi4xODUsMCw0LjM2OS0wLjgzNiw2LjAzMy0yLjVsMTkuNTY3LTE5LjU2N2wxNy44MDEsMTcuODAxbC0xOS41NjcsMTkuNTY3Yy0zLjMzNywzLjMzNy0zLjMzNyw4LjczLDAsMTIuMDY2ICAgICBjMS42NjQsMS42NjQsMy44NDksMi41LDYuMDMzLDIuNXM0LjM2OS0wLjgzNiw2LjAzMy0yLjVsMTkuNTY3LTE5LjU2N2wxOS41NjcsMTkuNTY3ICAgICBDMjc3LjIyMiwzNDkuMDE4LDI3OS40MDcsMzQ5Ljg1NCwyODEuNTkxLDM0OS44NTR6Ii8+JiN4YTsgICAgICAgICAgICAgICAgICAgICAgICAgICAgICAgICAgICAgICAgICAgICAgICA8L2c+JiN4YTsgICAgICAgICAgICAgICAgICAgICAgICAgICAgICAgICAgICAgICAgICAgIDwvc3ZnPg==;" vertex="1" parent="1">
          <mxGeometry x="-19.5" y="402" width="50" height="50" as="geometry" />
        </mxCell>
        <mxCell id="fHKddjJ4R96vvE8QsRok-1823" value="" style="shape=image;verticalLabelPosition=bottom;labelBackgroundColor=default;verticalAlign=top;aspect=fixed;imageAspect=0;image=data:image/svg+xml,PHN2ZyB4bWxuczp4bGluaz0iaHR0cDovL3d3dy53My5vcmcvMTk5OS94bGluayIgeG1sbnM9Imh0dHA6Ly93d3cudzMub3JnLzIwMDAvc3ZnIiB2ZXJzaW9uPSIxLjEiIHZpZXdCb3g9IjAgMCAyMCAyMCIgZmlsbD0id2hpdGUiPiYjeGE7ICAgICAgICAgICAgICAgICAgICAgICAgICAgICAgICAgICAgICAgICAgICAgICAgPGcgZmlsbC1ydWxlPSJldmVub2RkIj4mI3hhOyAgICAgICAgICAgICAgICAgICAgICAgICAgICAgICAgICAgICAgICAgICAgICAgICAgICA8ZyB0cmFuc2Zvcm09InRyYW5zbGF0ZSgtMjIwLjAwMDAwMCwgLTI1MTkuMDAwMDAwKSIgaWQ9IkRyaWJiYmxlLUxpZ2h0LVByZXZpZXciPiYjeGE7ICAgICAgICAgICAgICAgICAgICAgICAgICAgICAgICAgICAgICAgICAgICAgICAgICAgICAgICA8ZyB0cmFuc2Zvcm09InRyYW5zbGF0ZSg1Ni4wMDAwMDAsIDE2MC4wMDAwMDApIiBpZD0iaWNvbnMiPiYjeGE7ICAgICAgICAgICAgICAgICAgICAgICAgICAgICAgICAgICAgICAgICAgICAgICAgICAgICAgICAgICAgPHBhdGggaWQ9InN1bl9zdGFyLVsjMTI2OF0iIGQ9Ik0xNjYuOTI5LDIzNjMuMzQzIEMxNjYuNTM4LDIzNjIuOTUyIDE2Ni41MzgsMjM2Mi4zMTkgMTY2LjkyOSwyMzYxLjkyOSBDMTY3LjMyLDIzNjEuNTM4IDE2Ny45NTMsMjM2MS41MzggMTY4LjM0MywyMzYxLjkyOSBDMTY4LjczNCwyMzYyLjMxOSAxNjguNzM0LDIzNjIuOTUyIDE2OC4zNDMsMjM2My4zNDMgQzE2Ny45NTMsMjM2My43MzQgMTY3LjMyLDIzNjMuNzM0IDE2Ni45MjksMjM2My4zNDMgTTE4MS4wNzEsMjM3NC42NTcgQzE4MS40NjIsMjM3NS4wNDcgMTgxLjQ2MiwyMzc1LjY4IDE4MS4wNzEsMjM3Ni4wNzEgQzE4MC42ODEsMjM3Ni40NjEgMTgwLjA0NywyMzc2LjQ2MSAxNzkuNjU3LDIzNzYuMDcxIEMxNzkuMjY2LDIzNzUuNjggMTc5LjI2NiwyMzc1LjA0NyAxNzkuNjU3LDIzNzQuNjU3IEMxODAuMDQ3LDIzNzQuMjY2IDE4MC42ODEsMjM3NC4yNjYgMTgxLjA3MSwyMzc0LjY1NyBNMTY4LjM0MywyMzc0LjY1NyBDMTY4LjczNCwyMzc1LjA0NyAxNjguNzM0LDIzNzUuNjggMTY4LjM0MywyMzc2LjA3MSBDMTY3Ljk1MywyMzc2LjQ2MSAxNjcuMzIsMjM3Ni40NjEgMTY2LjkyOSwyMzc2LjA3MSBDMTY2LjUzOCwyMzc1LjY4IDE2Ni41MzgsMjM3NS4wNDcgMTY2LjkyOSwyMzc0LjY1NyBDMTY3LjMyLDIzNzQuMjY2IDE2Ny45NTMsMjM3NC4yNjYgMTY4LjM0MywyMzc0LjY1NyBNMTgxLjA3MSwyMzYxLjkyOSBDMTgxLjQ2MiwyMzYyLjMxOSAxODEuNDYyLDIzNjIuOTUyIDE4MS4wNzEsMjM2My4zNDMgQzE4MC42ODEsMjM2My43MzQgMTgwLjA0NywyMzYzLjczNCAxNzkuNjU3LDIzNjMuMzQzIEMxNzkuMjY2LDIzNjIuOTUyIDE3OS4yNjYsMjM2Mi4zMTkgMTc5LjY1NywyMzYxLjkyOSBDMTgwLjA0NywyMzYxLjUzOCAxODAuNjgxLDIzNjEuNTM4IDE4MS4wNzEsMjM2MS45MjkgTTE2NiwyMzY5IEMxNjYsMjM2OS41NTIgMTY1LjU1MiwyMzcwIDE2NSwyMzcwIEMxNjQuNDQ4LDIzNzAgMTY0LDIzNjkuNTUyIDE2NCwyMzY5IEMxNjQsMjM2OC40NDggMTY0LjQ0OCwyMzY4IDE2NSwyMzY4IEMxNjUuNTUyLDIzNjggMTY2LDIzNjguNDQ4IDE2NiwyMzY5IE0xODQsMjM2OSBDMTg0LDIzNjkuNTUyIDE4My41NTIsMjM3MCAxODMsMjM3MCBDMTgyLjQ0OCwyMzcwIDE4MiwyMzY5LjU1MiAxODIsMjM2OSBDMTgyLDIzNjguNDQ4IDE4Mi40NDgsMjM2OCAxODMsMjM2OCBDMTgzLjU1MiwyMzY4IDE4NCwyMzY4LjQ0OCAxODQsMjM2OSBNMTc1LDIzNzggQzE3NSwyMzc4LjU1MiAxNzQuNTUyLDIzNzkgMTc0LDIzNzkgQzE3My40NDgsMjM3OSAxNzMsMjM3OC41NTIgMTczLDIzNzggQzE3MywyMzc3LjQ0OCAxNzMuNDQ4LDIzNzcgMTc0LDIzNzcgQzE3NC41NTIsMjM3NyAxNzUsMjM3Ny40NDggMTc1LDIzNzggTTE3MywyMzYwIEMxNzMsMjM1OS40NDggMTczLjQ0OCwyMzU5IDE3NCwyMzU5IEMxNzQuNTUyLDIzNTkgMTc1LDIzNTkuNDQ4IDE3NSwyMzYwIEMxNzUsMjM2MC41NTIgMTc0LjU1MiwyMzYxIDE3NCwyMzYxIEMxNzMuNDQ4LDIzNjEgMTczLDIzNjAuNTUyIDE3MywyMzYwIE0xNzQsMjM3NCBDMTcxLjI0MywyMzc0IDE2OSwyMzcxLjc1NyAxNjksMjM2OSBDMTY5LDIzNjYuMjQzIDE3MS4yNDMsMjM2NCAxNzQsMjM2NCBDMTc2Ljc1NywyMzY0IDE3OSwyMzY2LjI0MyAxNzksMjM2OSBDMTc5LDIzNzEuNzU3IDE3Ni43NTcsMjM3NCAxNzQsMjM3NCBNMTc0LDIzNjIgQzE3MC4xMzQsMjM2MiAxNjcsMjM2NS4xMzQgMTY3LDIzNjkgQzE2NywyMzcyLjg2NiAxNzAuMTM0LDIzNzYgMTc0LDIzNzYgQzE3Ny44NjYsMjM3NiAxODEsMjM3Mi44NjYgMTgxLDIzNjkgQzE4MSwyMzY1LjEzNCAxNzcuODY2LDIzNjIgMTc0LDIzNjIiLz4mI3hhOyAgICAgICAgICAgICAgICAgICAgICAgICAgICAgICAgICAgICAgICAgICAgICAgICAgICAgICAgPC9nPiYjeGE7ICAgICAgICAgICAgICAgICAgICAgICAgICAgICAgICAgICAgICAgICAgICAgICAgICAgIDwvZz4mI3hhOyAgICAgICAgICAgICAgICAgICAgICAgICAgICAgICAgICAgICAgICAgICAgICAgIDwvZz4mI3hhOyAgICAgICAgICAgICAgICAgICAgICAgICAgICAgICAgICAgICAgICAgICAgPC9zdmc+;" vertex="1" parent="1">
          <mxGeometry x="-25" y="744" width="50" height="50" as="geometry" />
        </mxCell>
        <mxCell id="fHKddjJ4R96vvE8QsRok-1824" value="" style="shape=image;verticalLabelPosition=bottom;labelBackgroundColor=default;verticalAlign=top;aspect=fixed;imageAspect=0;image=data:image/svg+xml,PHN2ZyB4bWxuczp4bGluaz0iaHR0cDovL3d3dy53My5vcmcvMTk5OS94bGluayIgeG1sbnM9Imh0dHA6Ly93d3cudzMub3JnLzIwMDAvc3ZnIiB4bWw6c3BhY2U9InByZXNlcnZlIiB2aWV3Qm94PSIwIDAgNTEyIDUxMiIgaWQ9IkxheWVyXzEiIHZlcnNpb249IjEuMSIgd2lkdGg9IjgwMHB4IiBoZWlnaHQ9IjgwMHB4IiBmaWxsPSJ3aGl0ZSI+JiN4YTsgICAgICAgICAgICAgICAgICAgICAgICAgICAgICAgICAgICAgICAgICAgICAgICA8Zz4mI3hhOyAgICAgICAgICAgICAgICAgICAgICAgICAgICAgICAgICAgICAgICAgICAgICAgICAgICA8Zz4mI3hhOyAgICAgICAgICAgICAgICAgICAgICAgICAgICAgICAgICAgICAgICAgICAgICAgICAgICAgICAgPHBhdGggZD0iTTM1Ni4xNzQsMTg5LjIxN2MtMzYuODI0LDAtNjYuNzgzLDI5Ljk1OS02Ni43ODMsNjYuNzgzczI5Ljk1OSw2Ni43ODMsNjYuNzgzLDY2Ljc4M3M2Ni43ODMtMjkuOTU5LDY2Ljc4My02Ni43ODMgICAgUzM5Mi45OTgsMTg5LjIxNywzNTYuMTc0LDE4OS4yMTd6IE0zNTYuMTc0LDMwMC41MjJjLTI0LjU0OSwwLTQ0LjUyMi0xOS45NzItNDQuNTIyLTQ0LjUyMmMwLTI0LjU0OSwxOS45NzItNDQuNTIyLDQ0LjUyMi00NC41MjIgICAgYzI0LjU0OSwwLDQ0LjUyMiwxOS45NzIsNDQuNTIyLDQ0LjUyMkM0MDAuNjk2LDI4MC41NDksMzgwLjcyMywzMDAuNTIyLDM1Ni4xNzQsMzAwLjUyMnoiLz4mI3hhOyAgICAgICAgICAgICAgICAgICAgICAgICAgICAgICAgICAgICAgICAgICAgICAgICAgICA8L2c+JiN4YTsgICAgICAgICAgICAgICAgICAgICAgICAgICAgICAgICAgICAgICAgICAgICAgICA8L2c+JiN4YTsgICAgICAgICAgICAgICAgICAgICAgICAgICAgICAgICAgICAgICAgICAgICAgICA8Zz4mI3hhOyAgICAgICAgICAgICAgICAgICAgICAgICAgICAgICAgICAgICAgICAgICAgICAgICAgICA8Zz4mI3hhOyAgICAgICAgICAgICAgICAgICAgICAgICAgICAgICAgICAgICAgICAgICAgICAgICAgICAgICAgPHBhdGggZD0iTTQ3OC42MDksMjIyLjYwOWMtMTguNDEyLDAtMzMuMzkxLDE0Ljk3OS0zMy4zOTEsMzMuMzkxYzAsMTguNDEyLDE0Ljk3OSwzMy4zOTEsMzMuMzkxLDMzLjM5MSAgICBDNDk3LjAyMSwyODkuMzkxLDUxMiwyNzQuNDEyLDUxMiwyNTZDNTEyLDIzNy41ODgsNDk3LjAyMSwyMjIuNjA5LDQ3OC42MDksMjIyLjYwOXogTTQ3OC42MDksMjY3LjEzICAgIGMtNi4xMzcsMC0xMS4xMy00Ljk5My0xMS4xMy0xMS4xM2MwLTYuMTM3LDQuOTkzLTExLjEzLDExLjEzLTExLjEzczExLjEzLDQuOTkzLDExLjEzLDExLjEzICAgIEM0ODkuNzM5LDI2Mi4xMzcsNDg0Ljc0NiwyNjcuMTMsNDc4LjYwOSwyNjcuMTN6Ii8+JiN4YTsgICAgICAgICAgICAgICAgICAgICAgICAgICAgICAgICAgICAgICAgICAgICAgICAgICAgPC9nPiYjeGE7ICAgICAgICAgICAgICAgICAgICAgICAgICAgICAgICAgICAgICAgICAgICAgICAgPC9nPiYjeGE7ICAgICAgICAgICAgICAgICAgICAgICAgICAgICAgICAgICAgICAgICAgICAgICAgPGc+JiN4YTsgICAgICAgICAgICAgICAgICAgICAgICAgICAgICAgICAgICAgICAgICAgICAgICAgICAgPGc+JiN4YTsgICAgICAgICAgICAgICAgICAgICAgICAgICAgICAgICAgICAgICAgICAgICAgICAgICAgICAgIDxwYXRoIGQ9Ik0xNjYuNzM0LDE0Mi41MjVjLTAuMTM0LTAuNzEyLTAuMzU2LTEuNDE1LTAuNjM0LTIuMDgxYy0wLjI3OC0wLjY3OS0wLjYxMi0xLjMyMy0xLjAxMy0xLjkyNCAgICBjLTAuNDEyLTAuNjEzLTAuODc5LTEuMTgxLTEuMzkxLTEuNjkzYy0wLjUxMi0wLjUxMi0xLjA4LTAuOTc5LTEuNjkyLTEuMzhjLTAuNjAxLTAuNC0xLjI0Ny0wLjc0Ni0xLjkxNC0xLjAyNCAgICBjLTAuNjc5LTAuMjc4LTEuMzgtMC40ODktMi4wOTMtMC42MzNjLTEuNDM2LTAuMjktMi45MDUtMC4yOS00LjM0MSwwYy0wLjcxMiwwLjE0NS0xLjQxNCwwLjM1NS0yLjA4MSwwLjYzMyAgICBjLTAuNjc5LDAuMjc4LTEuMzI1LDAuNjI0LTEuOTI2LDEuMDI0Yy0wLjYxMiwwLjQwMS0xLjE4LDAuODY4LTEuNjkyLDEuMzhjLTIuMDcsMi4wNy0zLjI2MSw0Ljk0Mi0zLjI2MSw3Ljg2OSAgICBzMS4xOTEsNS43OTksMy4yNjEsNy44NjhjMi4wNywyLjA3MSw0Ljk0MiwzLjI2Miw3Ljg2OSwzLjI2MnM1Ljc5OS0xLjE5MSw3Ljg2OS0zLjI2MmMyLjA3LTIuMDY5LDMuMjYxLTQuOTQxLDMuMjYxLTcuODY4ICAgIEMxNjYuOTU3LDE0My45NzIsMTY2Ljg3OSwxNDMuMjM2LDE2Ni43MzQsMTQyLjUyNXoiLz4mI3hhOyAgICAgICAgICAgICAgICAgICAgICAgICAgICAgICAgICAgICAgICAgICAgICAgICAgICA8L2c+JiN4YTsgICAgICAgICAgICAgICAgICAgICAgICAgICAgICAgICAgICAgICAgICAgICAgICA8L2c+JiN4YTsgICAgICAgICAgICAgICAgICAgICAgICAgICAgICAgICAgICAgICAgICAgICAgICA8Zz4mI3hhOyAgICAgICAgICAgICAgICAgICAgICAgICAgICAgICAgICAgICAgICAgICAgICAgICAgICA8Zz4mI3hhOyAgICAgICAgICAgICAgICAgICAgICAgICAgICAgICAgICAgICAgICAgICAgICAgICAgICAgICAgPHBhdGggZD0iTTE3OC4wODcsMzExLjY1MmMtMTguNDEyLDAtMzMuMzkxLDE0Ljk3OS0zMy4zOTEsMzMuMzkxYzAsMTguNDEyLDE0Ljk3OSwzMy4zOTEsMzMuMzkxLDMzLjM5MSAgICBjMTguNDEyLDAsMzMuMzkxLTE0Ljk3OSwzMy4zOTEtMzMuMzkxQzIxMS40NzgsMzI2LjYzMiwxOTYuNDk5LDMxMS42NTIsMTc4LjA4NywzMTEuNjUyeiBNMTc4LjA4NywzNTYuMTc0ICAgIGMtNi4xMzcsMC0xMS4xMy00Ljk5My0xMS4xMy0xMS4xM3M0Ljk5My0xMS4xMywxMS4xMy0xMS4xM3MxMS4xMyw0Ljk5MywxMS4xMywxMS4xM1MxODQuMjI0LDM1Ni4xNzQsMTc4LjA4NywzNTYuMTc0eiIvPiYjeGE7ICAgICAgICAgICAgICAgICAgICAgICAgICAgICAgICAgICAgICAgICAgICAgICAgICAgIDwvZz4mI3hhOyAgICAgICAgICAgICAgICAgICAgICAgICAgICAgICAgICAgICAgICAgICAgICAgIDwvZz4mI3hhOyAgICAgICAgICAgICAgICAgICAgICAgICAgICAgICAgICAgICAgICAgICAgICAgIDxnPiYjeGE7ICAgICAgICAgICAgICAgICAgICAgICAgICAgICAgICAgICAgICAgICAgICAgICAgICAgIDxnPiYjeGE7ICAgICAgICAgICAgICAgICAgICAgICAgICAgICAgICAgICAgICAgICAgICAgICAgICAgICAgICA8cGF0aCBkPSJNMjY3LjA2NCwyNTAuMTI2Yy0wLjA0Ny0yLjA5LTAuMTI0LTQuMTc5LTAuMjIxLTYuMjY4Yy0wLjU0My0xMS41OTEtMS44NTgtMjMuMTE2LTMuOTM1LTM0LjM5MSAgICBjLTQuNDY5LTI0LjMyNy0xMi40NDMtNDcuODI0LTIzLjctNjkuODRjLTEuMDYtMi4wNzEtMi4xNDgtNC4xMjktMy4yNjMtNi4xNzFjLTIuNzMtNC45OTUtNS42NDYtOS44ODgtOC43MDEtMTQuNjkgICAgYy01LjY4OC04Ljk0LTExLjkwNC0xNy41MzYtMTguNjM4LTI1LjY4M2MtMC4wMDMtMC4wMDQtMC4wMDgtMC4wMDktMC4wMTItMC4wMTNDMTU5LjczOCwzMy45MjIsODcuNzY4LDAsMTEuMTMsMCAgICBDNC45ODMsMCwwLDQuOTg0LDAsMTEuMTN2MzExLjY1MnY0NC41MjJWNTAwLjg3QzAsNTA3LjAxNiw0Ljk4Myw1MTIsMTEuMTMsNTEyYzY4LjM3OSwwLDEzMi42NjYtMjYuNjMsMTgxLjAxOS03NC45ODEgICAgQzI0MC41MDIsMzg4LjY2NSwyNjcuMTMsMzI0LjM3OSwyNjcuMTMsMjU2QzI2Ny4xMywyNTQuMDQxLDI2Ny4xMDgsMjUyLjA4MywyNjcuMDY0LDI1MC4xMjZ6IE0yMi4yNjEsMzMzLjkxM2g3Ny45MTMgICAgYzYuMTM3LDAsMTEuMTMsNC45OTMsMTEuMTMsMTEuMTNzLTQuOTkzLDExLjEzLTExLjEzLDExLjEzSDIyLjI2MVYzMzMuOTEzeiBNMjIuMjYxLDQ4OS40NzhWMzc4LjQzNWg3Ny45MTMgICAgYzE4LjQxMiwwLDMzLjM5MS0xNC45NzksMzMuMzkxLTMzLjM5MWMwLTE4LjQxMi0xNC45NzktMzMuMzkxLTMzLjM5MS0zMy4zOTFIMjIuMjYxVjIyLjUyMiAgICBjNTcuNTQ4LDIuNzE0LDExMS41NjMsMjYuMzksMTUyLjQ2Miw2Ni41MjFoLTc0LjU0OWMtOC45MTYsMC0xNy4zLDMuNDc0LTIzLjYxLDkuNzg0Yy02LjMwOCw2LjMwOS05Ljc4MSwxNC42OTItOS43ODEsMjMuNjA4ICAgIGMwLDE4LjQxMiwxNC45NzksMzMuMzkxLDMzLjM5MSwzMy4zOTFoMjIuMjYxYzYuMTQ3LDAsMTEuMTMtNC45ODQsMTEuMTMtMTEuMTNzLTQuOTgzLTExLjEzLTExLjEzLTExLjEzaC0yMi4yNjEgICAgYy02LjEzNywwLTExLjEzLTQuOTkzLTExLjEzLTExLjEzYzAtMi45NywxLjE1OS01Ljc2NCwzLjI2Mi03Ljg2N2MyLjEwNC0yLjEwNSw0Ljg5OC0zLjI2Myw3Ljg2OC0zLjI2M2g5NC41MTggICAgYzAuMTE4LDAuMTQ5LDAuMjM5LDAuMjk1LDAuMzU2LDAuNDQzYzAuODM3LDEuMDY2LDEuNjU1LDIuMTQ4LDIuNDczLDMuMjI4YzAuNTA2LDAuNjcsMS4wMjMsMS4zMywxLjUyMywyLjAwNSAgICBjMC45MjMsMS4yNDUsMS44MjIsMi41MDksMi43MTksMy43NzJjMC4zNzUsMC41MjksMC43NjEsMS4wNDYsMS4xMzEsMS41NzdjMS4yNTgsMS44MDEsMi40OTEsMy42MTksMy42OTgsNS40NTUgICAgYzAuMjA2LDAuMzEzLDAuNDAxLDAuNjM0LDAuNjA1LDAuOTQ5YzAuOTk0LDEuNTI5LDEuOTc5LDMuMDY1LDIuOTM3LDQuNjE3YzAuMDQzLDAuMDcsMC4wODUsMC4xNDQsMC4xMjksMC4yMTRoLTIxLjA0NyAgICBjLTYuMTQ3LDAtMTEuMTMsNC45ODQtMTEuMTMsMTEuMTNjMCw2LjE0Niw0Ljk4MywxMS4xMywxMS4xMywxMS4xM2gzMy4xNWM2Ljc4MiwxNC4yNzMsMTIuMDg0LDI5LjE4LDE1LjgzMSw0NC41MjJoLTQ4Ljk4MSAgICBjLTguOTE1LDAtMTcuMywzLjQ3NC0yMy42MSw5Ljc4NGMtNi4zMDgsNi4zMS05Ljc4MSwxNC42OTMtOS43ODEsMjMuNjA5YzAsMTguNDEyLDE0Ljk3OSwzMy4zOTEsMzMuMzkxLDMzLjM5MWg1NS4zODUgICAgQzIzOC45NDYsMzg3LjE3OSwxNDIuMzEyLDQ4My44MjcsMjIuMjYxLDQ4OS40Nzh6IE0xODkuMjE3LDI0NC44N2MtNi4xMzcsMC0xMS4xMy00Ljk5My0xMS4xMy0xMS4xMyAgICBjMC0yLjk3LDEuMTU5LTUuNzY0LDMuMjYyLTcuODY3YzIuMTA0LTIuMTA1LDQuODk3LTMuMjYzLDcuODY4LTMuMjYzaDUzLjI3NWMwLjAzMSwwLjIxOCwwLjA2NywwLjQzNiwwLjA5NywwLjY1NCAgICBjMC4xNDEsMS4wMTEsMC4yNjksMi4wMjUsMC4zOTcsMy4wMzljMC4xLDAuNzkxLDAuMjA1LDEuNTgyLDAuMjk3LDIuMzc1YzAuMTIsMS4wMzgsMC4yMjYsMi4wNzgsMC4zMzMsMy4xMTkgICAgYzAuMDc5LDAuNzc1LDAuMTY2LDEuNTQ4LDAuMjM3LDIuMzI0YzAuMDk5LDEuMDc0LDAuMTgxLDIuMTUxLDAuMjY3LDMuMjI3YzAuMDU5LDAuNzQ2LDAuMTI2LDEuNDksMC4xNzcsMi4yMzYgICAgYzAuMDgsMS4xNiwwLjE0MSwyLjMyMywwLjIwNSwzLjQ4NWMwLjAzMiwwLjYwMSwwLjA3MywxLjIwMSwwLjEwMiwxLjgwMkgxODkuMjE3eiIvPiYjeGE7ICAgICAgICAgICAgICAgICAgICAgICAgICAgICAgICAgICAgICAgICAgICAgICAgICAgIDwvZz4mI3hhOyAgICAgICAgICAgICAgICAgICAgICAgICAgICAgICAgICAgICAgICAgICAgICAgIDwvZz4mI3hhOyAgICAgICAgICAgICAgICAgICAgICAgICAgICAgICAgICAgICAgICAgICAgPC9zdmc+;" vertex="1" parent="1">
          <mxGeometry x="-185" y="744" width="50" height="50" as="geometry" />
        </mxCell>
        <mxCell id="fHKddjJ4R96vvE8QsRok-1825" value="" style="shape=image;verticalLabelPosition=bottom;labelBackgroundColor=default;verticalAlign=top;aspect=fixed;imageAspect=0;image=data:image/svg+xml,PHN2ZyB4bWxuczp4bGluaz0iaHR0cDovL3d3dy53My5vcmcvMTk5OS94bGluayIgeG1sbnM9Imh0dHA6Ly93d3cudzMub3JnLzIwMDAvc3ZnIiB4bWw6c3BhY2U9InByZXNlcnZlIiB2aWV3Qm94PSIwIDAgNTEyIDUxMiIgZmlsbD0id2hpdGUiPiYjeGE7ICAgICAgICAgICAgICAgICAgICAgICAgICAgICAgICAgICAgICAgICAgICAgICAgPGc+JiN4YTsgICAgICAgICAgICAgICAgICAgICAgICAgICAgICAgICAgICAgICAgICAgICAgICAgICAgPHBhdGggZD0iTTQ5MS44NzgsMTU2LjM0OEM0NzIuNDM3LDExMC4zOSw0MzkuOTg5LDcxLjMzLDM5OS4xNCw0My43MzFDMzU4LjMwNywxNi4xMzEsMzA4Ljk2NC0wLjAwOCwyNTYsMCAgIGMtMzUuMzA0LDAtNjkuMDExLDcuMTY3LTk5LjY1MiwyMC4xMjJDMTEwLjM5LDM5LjU2NCw3MS4zMyw3Mi4wMTEsNDMuNzMxLDExMi44NkMxNi4xMzEsMTUzLjY5My0wLjAwOCwyMDMuMDM2LDAsMjU2ICAgYzAsMzUuMzA0LDcuMTY3LDY5LjAyLDIwLjEyMiw5OS42NTNjMTkuNDQyLDQ1Ljk1Nyw1MS44ODksODUuMDE2LDkyLjczOCwxMTIuNjE2YzQwLjgzMiwyNy42LDkwLjE3Niw0My43NCwxNDMuMTQsNDMuNzMxICAgYzM1LjMwNSwwLDY5LjAyLTcuMTY2LDk5LjY1My0yMC4xMjJjNDUuOTU3LTE5LjQ0Miw4NS4wMTctNTEuODg5LDExMi42MTctOTIuNzM4YzI3LjYtNDAuODMyLDQzLjc0LTkwLjE3Niw0My43MzEtMTQzLjE0ICAgQzUxMiwyMjAuNjk3LDUwNC44NDIsMTg2Ljk4LDQ5MS44NzgsMTU2LjM0OHogTTQyNy44MTQsMTEwLjM0OGMwLjc3NCwwLjkxNSwxLjUzLDEuODU2LDIuMjk0LDIuNzg5ICAgYy0xLjQ5Ni0wLjQ1NC0yLjk5MS0wLjkwOC00LjQ4Ni0xLjM3QzQyNi4zNTMsMTExLjI5Nyw0MjcuMDg0LDExMC44MTksNDI3LjgxNCwxMTAuMzQ4eiBNMzgyLjgzMiwxMDEuMTgyICAgQzM4Ny4xNDIsMTAwLjc1NCwzODAuNDQ2LDEwMS40MzQsMzgyLjgzMiwxMDEuMTgyYy0xLjc5OC0wLjEyNi0zLjE1OS0wLjg1OC00LjA2Ni0yLjE3NyAgIEMzODQuNTc5LDk1LjIxNywzODguNzQ3LDEwMC41ODUsMzgyLjgzMiwxMDEuMTgyeiBNMjkwLjkxNyw4MS4xMjdjMS42MTMsNC4xNDItOS45NTYsMC4yNzctMTEuMjE2LTAuMzM2ICAgYy0wLjczOS0wLjczOS0xLjI5NC0xLjU4LTEuNjYzLTIuNTJDMjc4LjAyMSw3OS4yMDMsMjkwLjM4OCw3OS43NDksMjkwLjkxNyw4MS4xMjd6IE0yNTguNzksNzUuNDA2ICAgYzIuODIzLDAuOTU4LDE0LjAyMi0xLjU3MiwxNC4zODMsMS43MjJjMC42NzMsNi4wNDktMy45OSwwLjA1OC00Ljk1NiwwLjA1OGMtMi42MjIsMCwxLjIxLDIuNzgsMS4zMSwyLjkyMyAgIGMtMC42NTYtMC45NTctOC40NjEtMC44NTctMTAuMTA3LTAuNDYyQzI1NC42NTYsODguMzUyLDI0MS42NzUsNjkuNTkyLDI1OC43OSw3NS40MDZ6IE0yNzEuNzExLDg3LjAyNiAgIGMtMy4xMDgsMS4xNDItOC40NDMsMC4xNjgtMTEuNzU0LDAuMTY4QzI1My44MDgsODUuNTgsMjc2LjcxOCw4NS4xOTQsMjcxLjcxMSw4Ny4wMjZ6IE03OS4yMzYsMzEzLjE5ICAgQzc5LjA2LDMxNS44MTIsNzkuMzQ2LDMxMS41NDQsNzkuMjM2LDMxMy4xOWMwLjA0Mi0wLjY2MywxLjEyNi01Ljc1NSwyLjA4NC02LjA0OWMxLjUxMy0wLjQ1Myw0LjYxMyw2Ljk5OSw0LjQ4Nyw4LjA0MSAgIEM4NS4xMSwzMjEuMjA2LDc4Ljg5MiwzMTguMTQ4LDc5LjIzNiwzMTMuMTl6IE0xMzYuMTUsMzM5LjE2OWMtMy4yNTItMy45ODMtNS4xOTItOC40NjEtOC4yODQtMTIuNTI4ICAgYy0wLjYzLTAuODQtMTEuMDMxLTYuNzU0LTkuMDU4LTcuNzk2YzQuMjQzLTIuMjEsMzkuNTA1LDE4LjUxNywzNy45MzQsMjEuNjc2Yy0wLjE1MiwwLjMwMy03Ljg4OS02Ljc5Ny05Ljg0Ny01LjUyICAgYy0xLjMwMiwwLjg0OCwyLjY4OSwzLjkzMiwyLjY4OSw1LjQxOWMyLjAxNiwxLjAzMyw3LjE0OSw4LjY0NiwyLjkzMiw4Ljg3MkMxNDcuODYyLDM0OS41NDUsMTM4Ljg3MiwzNDIuNTEyLDEzNi4xNSwzMzkuMTY5eiAgICBNMTU0Ljg5NCwzNDAuNTQ2YzAuMjEsMS4zNy0zLjY0Ni0xLjE4NS0zLjg3My0xLjI3N0MxNTEuNzc3LDMzNy44ODQsMTU0LjcxOCwzMzkuNDEyLDE1NC44OTQsMzQwLjU0NnogTTE1MS45MiwzNTMuMjA4ICAgYy0zLjg5OC0yLjQ4NywxMi41NjktMC41NTQsMTMuNDU5LTAuNDg3YzMuMjUyLDAuMjQzLDExLjQxOCwwLjA3NiwxMy41NTIsMy45NzRDMTc5LjU2OSwzNTcuODYyLDE1NS41NzQsMzU1LjU0NCwxNTEuOTIsMzUzLjIwOCAgIEMxNTQuMzU2LDM1NC43NywxNTAuMTIyLDM1Mi4wNjYsMTUxLjkyLDM1My4yMDh6IE0xODguNjg2LDMxNy42NDRjNC4xMjUtNC4yMDEsOC44MzksMy4yMzUsOS4xNzQsMi45MzIgICBjLTIuNTk2LDIuMzY5LTYuNDg2LDYuOTQtMS4yNTIsOS42NzFjMy45MzIsMi4wNTgtNC42NzIsMy41MzctNC42NzIsNC4yNjhjMCwyLjk2Ni00Ljc3MSwxMC43OTUtNy44MTQsMTIuMDE0ICAgYzAuMTc3LTAuMDY3LTExLjkxMy0zLjQxOS0xMi45NzItMy43MjJjLTIuNjM4LTAuNzY0LTMuNDQ1LTguMDgyLTUuMDU4LTEwLjQyNkMxNjYuMDkzLDMyOC4wMzYsMTg0LjUxLDMyMS44OTUsMTg4LjY4NiwzMTcuNjQ0eiAgICBNMTY3LjUzLDI4MS44NjljMS43NTYtMS4zMjgsMy4zNzgtMS40NzksNC44NDgtMC40NTRDMTczLjU0NiwyODcuODAxLDE2NS41MTQsMjgyLjc4NSwxNjcuNTMsMjgxLjg2OXogTTE5NS43MTgsMzA2Ljg2NCAgIGMwLjAwOS0wLjAxNywwLjAxNy0wLjAyNSwwLjAzNC0wLjAzNGMwLjA2Ny0wLjA1OSwwLjEwMS0wLjA4NCwwLjA5Mi0wLjA3NmMxLjA1LTAuODU3LDMuODA2LTMuMzAyLDQuODk4LTMuNTQ2ICAgQzIwMy43MTYsMzAyLjUyOSwxOTMuNjc2LDMwOC41MDIsMTk1LjcxOCwzMDYuODY0eiBNMjAxLjY1OCwyOTQuMjc4Yy0wLjU2My0zLjM1My0wLjE1MS0zLjk3NCwwLjA5My02LjY4ICAgYzAuNDI4LTQuNzEzLDUuOTE1LTYuNzcyLDcuMDA3LTEuMDkyYzAuMTkzLDAuOTc1LTUuNzIxLDkuODgtMS4yMTgsOS4zMTdjMy42MTItMC40NTQsNi4zMDEtMC42MjIsNS4xMzQsMy45MzIgICBjLTEuMDc2LTAuNzE0LTcuODE0LTQuMDc1LTguNjM3LTMuODk4Yy0wLjc5OCwwLjE2OC0zLjM2LDguNzQ2LTYuMDQ5LDcuOTM5QzE5OS4xNjIsMzA0LjE1MSwyMDEuODA5LDI5NS45NSwyMDEuNjU4LDI5NC4yNzh6ICAgIE0yMDAuNzM0LDI2OS4wNzNjMC4wODQtMS4zMjgsMi4wNDItNS4xMjUsNC4xNzYtNC42ODhjMi40NjEsMC41MTMtMC43MzEsMTAuMTQxLTIuNDg3LDkuMDMyYy0xLjI2LTEuMTkzLTEuODIzLTIuNjM5LTEuNjg5LTQuMzM1ICAgQzIwMC43LDI2OS42NzgsMjAwLjYwOCwyNzEuMTk5LDIwMC43MzQsMjY5LjA3M3ogTTIxMy40NzksMzAwLjQwM2MwLjAxNi0wLjAwOCwwLjAxNi0wLjAxNiwwLjAzNC0wLjAxNiAgIGM0Ljc5Ny0yLjQyLDMuNDUyLDQuMjE4LDMuOTY1LDQuNDUyQzIxNi44MzEsMzA0LjU0NiwyMTMuMTAxLDMwMC42MTMsMjEzLjQ3OSwzMDAuNDAzeiBNMjE4LjE4NCwzMDguMDQgICBDMjE3LjI2LDMwNy44ODksMjE5LjI3NiwzMDguMjE3LDIxOC4xODQsMzA4LjA0YzEuNTIxLDAuMjQ0LDIuMjY5LDMuMzY5LDIuNDIsNC4zNzhjMC42MjEsNC4yNDMsMC41NDYsMi40MTEtMi4yNiwzLjUyICAgYy0wLjc2NSwwLjI5NCwwLjA4NCwyLjc0Ny0xLjY3MiwyLjg2NWMtMC44NCwwLjA1LTUuNDM2LTAuOTA4LTMuOTQ4LTIuNjcyYzMuMDkxLTMuNjYzLTUuNjYzLTAuODE1LTUuNjYzLTEuMTM0ICAgYzAtMS4yMjcsMS4zODYtNC4wNzUsMy4xODQtMy42OTdDMjE1LjUwNCwzMTIuMzg0LDIxNS41OCwzMDcuNjIsMjE4LjE4NCwzMDguMDR6IE0yMjMuNDM1LDMzNS4wODYgICBjLTEuMzExLTEuNzQ4LTAuMTE4LTYuMDc1LDEuMTU5LTcuNTEyYy0xLjAxNiwxLjE0MiwyLjcwNiwzLjA1OCwyLjg4MiwyLjI2QzIyNy4wODEsMzMxLjYzMiwyMjMuNjYxLDMzNS4zODgsMjIzLjQzNSwzMzUuMDg2eiAgICBNMjMwLjAzLDM0My4yMDJjLTAuMDc2LTAuNzM5LTYuMDQxLTAuNTg4LTYuOTQ4LTAuNzNDMjIxLjUxLDM0Mi40NzEsMjI5LjU5MywzMzguNzY2LDIzMC4wMywzNDMuMjAyeiBNMjIzLjcwNCwyNjIuODM5ICAgYy0zLjkwNywwLjg5LDAuODE2LTIuNzQ3LDEuNjY0LTIuODIzQzIyNi41MTgsMjU5LjkwNywyMjMuOTE0LDI2Mi41NTQsMjIzLjcwNCwyNjIuODM5eiBNMjIyLjM5MywzNTUuOTg5ICAgYzEuNTI5LDMuOTQxLTguNTAzLDQuNjcyLTkuOTA2LDUuMDA4YzEuMDc2LTAuMjYxLDcuMjg0LTIuNTg4LDcuODk4LTQuMjZDMjIwLjQ5NCwzNTYuNDI2LDIyMS42MTIsMzUzLjk2NCwyMjIuMzkzLDM1NS45ODl6ICAgIE0yMDAuNTU3LDM0My4zNjljLTIuMjQzLDEuMjI3LDAuMjEsNS44MzEtMi4xNiw2LjA2NmMtMy41MDMsMC4zNTItMS42MzgtOC43NTUtMC44NjYtMTEuMjA4ICAgYzMuNzk4LTExLjk5OCw5LjM1Miw0LjQ5NSwxMi40NjktMy40N2MtMC4yNTIsMC42NDctMTAuODQ3LTIuNjU1LTkuMDkxLTMuMjAxYzAuMDI1LTAuMDA4LDAuMDUxLTAuMDA4LDAuMDc2LTAuMDE3ICAgYzIuODktMC44NzMsMTIuOTk3LTMuMTg0LDE1LjQwOC0yLjU5NmMwLjU3MSwwLjEzNC02LjY2MiwxMC4xMzItMTAuNjM2LDkuODNjNC43OTgsMC4zNjksMi43MDUsNy40MTksMC45NDEsOS4zNTEgICBjLTAuNjMsMC42ODksNC40MTEsMi42NDYsMy43MjIsMy4xMTdDMjA3Ljk5MywzNTIuOTE0LDE5Ny41NzQsMzQ1LDIwMC41NTcsMzQzLjM2OXogTTIwNi40OTcsMzU2LjkzOCAgIGMwLjU5NywwLjMwMy0yLjczMSwxLjAyNS0zLjE1OSwxLjEwOWMtMS4zNzcsMC40Ny0yLjY4OCwwLjQxMi0zLjkzMi0wLjE3NkMxOTguNDY1LDM1Ny4xMTUsMjA1LjY5MSwzNTYuNTM1LDIwNi40OTcsMzU2LjkzOHogICAgTTE5OS4yOTcsMzU4Ljk0NmMtMC42NDcsMC40MDQtMS4zMzYsMC40MDQtMi4wNjcsMEMxOTUuMjU2LDM1Ny43NDQsMTk4LjM0OCwzNTcuOTM4LDE5OS4yOTcsMzU4Ljk0NnogTTIwNS41NDgsMzAwLjA1ICAgYzAsMCwwLDAtMC4wMDksMGMtMC4wMjUtMC4wMjUtMC4wNTEtMC4wNDItMC4wNzYtMC4wNThjMC4wMTcsMC4wMDgsMC4wMzQsMC4wMjUsMC4wNTgsMC4wNDFjLTAuMjM1LTAuMTU5LTIuNjgtMS44MTQtMC44NC0yLjAwOCAgIEMyMDcuMjc4LDI5Ny43NTcsMjA1LjU4MiwzMDAuMDc2LDIwNS41NDgsMzAwLjA1eiBNMjA4Ljc4MywzMDguMjg0Yy0yLjc5OCwwLTMuMDE2LTQuMDUtMy4xMzQtNS42MjEgICBDMjA3Ljc0OCwyOTYuNDIxLDIwOS40MjksMzA4LjI4NCwyMDguNzgzLDMwOC4yODR6IE0yMDkuOTc1LDM1OC4xMzJjMC43NC0wLjM4Nyw4LjIwOC0yLjQwMyw3LjcwNC0xLjYxMyAgIGMtMC40NzEsMC43NDgtOC44MzgsNC42MDQtOS42NzksMi45MjRDMjA4LjIyOCwzNTguNTI3LDIwOC44ODMsMzU4LjA5LDIwOS45NzUsMzU4LjEzMnogTTIxOC44MzksMzQzLjIwMmMwLjAwOCwwLDAuMDE3LDAsMC4wMTcsMCAgIGMtMC4wMjYsMC0wLjAwOSwwLTAuMDI2LDBjLTEuMTQyLDAuMDUxLTEuNjIyLTAuMzI4LTEuNDAzLTEuMTQzYzIuNDQ1LTEuMTI2LDMuMzQ0LDEuMzAzLDEuNDI5LDEuMTQzICAgQzIxOS4zMTgsMzQzLjI0NCwyMTkuMDkxLDM0My4yMjYsMjE4LjgzOSwzNDMuMjAyeiBNMjA5LjcwNywzMDQuNzM4Yy0wLjA5My0wLjA0Mi0wLjA2LTAuMDI1LTAuMDA5LTAuMDA4ICAgYy0xLjI5NC0wLjUxMi0wLjEwOS0zLjM5NCwxLjA4NC0yLjExOEMyMTEuMTc3LDMwMy4wNDEsMjEwLjQ1NCwzMDUuMDE2LDIwOS43MDcsMzA0LjczOHogTTIxMi4yNDQsMzA1LjUyOCAgIGMtMC4wODQsMC42OC0wLjYwNSwzLjQ1My0xLjg0LDMuNDUzYy0wLjIxOC0wLjc0LTAuMjE4LTEuNDc5LDAtMi4yMThDMjEwLjUzOSwzMDUuNjI5LDIxMS4xNTEsMzA1LjIxOCwyMTIuMjQ0LDMwNS41Mjh6ICAgIE0yMDIuMzU1LDMwNS4xODRMMjAyLjM1NSwzMDUuMTg0Yy0wLjU4LDEuMTY4LTcuNzgsOS44MzgtOC44MzksNS4xODRDMTkzLjU0MiwzMTAuNDg2LDIwMS44ODQsMzA2LjE0MiwyMDIuMzU1LDMwNS4xODR6ICAgIE0xOTQuOTAzLDM1Ni43MzdjLTEuNTEyLDAuMzk1LTIuNzg5LDEuMjk0LTQuNDcsMC4zNDRDMTg4LjcxOSwzNTYuMTE1LDE5NC44MzYsMzU2LjczNywxOTQuOTAzLDM1Ni43Mzd6IE0xODcuNDUxLDM1Ni4zMjUgICBjLTAuOTkyLDAtMC40NDYtMC42NTYsMC4yNjgtMC43MzlDMTg4LjQ0MiwzNTUuNTAyLDE4OC4zNSwzNTYuMzI1LDE4Ny40NTEsMzU2LjMyNXogTTI4MS4zNjUsNDU3LjgwOSAgIGMtNS42MjksMTMuMDM5LTExLjc3MS03Ljg2NC0xMC45OTgtNy42MkMyNzcuNzUyLDQ1Mi43MjYsMjg2LjE0NSw0NDYuNzM2LDI4MS4zNjUsNDU3LjgwOXogTTI5My44NDksNDIxLjY5MSAgIGMtMS45NDksNS43MjEtMy44MTQsMTEuNzI4LTcuMzQzLDE2Ljg0NWMtNC44NjQsNy4wNDktOC41NjEsMy4yOTQtMTUuMDY0LDMuMjM0Yy0zLjcyMy0wLjAzNC0yLjg0OSwyLjg2Ni02LjkxNiwxLjI3OCAgIGMtMi4yODUtMC44OTktNS40MDItMS41OTctNy40NDQtMi45MTZjMi41MjEsMS42My00LjM5NC05LjQyNy0zLjc2NC01LjQxMWMtMC4zNDQtMi4xNjctMi44MjMtMS4wODQtNC44NDgtMS40NzkgICBjMS4wOTMtMS4zODYsMS4wNDItMy41MzcsMi4xNTEtNC45MTVjLTIuNzQ3LTAuMDY3LTUuMDkxLDEuMTM1LTYuODE0LDMuMjc3Yy03LjczOC05LjU2MS0xNC45My0xMC40NTItMjcuMzcyLTcuMzI3ICAgYy0yLjg4MiwwLjcyMy04LjYwNCw1LjM2MS0xMC4yMDgsNS4zNjFjLTYuNTM3LDAtOC4wNDEtMC4yNjEtMTIuOTE0LDMuNTk2Yy0zLjM0NCwyLjY0Ni0xMS43MDMsMC44NC0xMi42NzgtMy41OTYgICBjLTAuNDQ2LTIuMDE2LDMuMjE4LTQuNzk3LDMuMjI2LTYuODljMC4wMDgtMS4zMjctMy44NC0yLjU5Ni00LjMxLTMuOTRjLTAuNzIzLTIuMTA4LDEtNC41OTYtMC43ODEtNi4zNDMgICBjLTAuNzQ4LTAuNzMxLTQuMTI1LTMuMTUtNC4yNDMtNC4xNWMtMC4xNTEtMS4zMTksMi44NzQtMi43MzEsMi44NzQtNC4zODZjMC0yLjMzNiwwLTQuNjYzLDAtNi45OTkgICBjMC01LjI4NCwxNC4yOTEtNi40NiwxOS45NjItOS4wNTdjNi42MjktMy4wMjUsMS43NjQtNC45MDYsNS44ODEtOC40MjdjMS4yMzYtMS4wNSw1LjUyOSwxLjAwOCw2LjgyMiwwICAgYzAuNzM5LTAuNTcxLTAuMjE4LTMuMzYsMC43ODEtNC40NzhjMS40MTItMS41NjIsNy43OTYtOC4xMDgsOC4yODQtMS44NzRjMC4yODYsMy42OTctMC4wNjcsMy40MDIsMy45OSwzLjQwMiAgIGMzLjI2OCwwLTAuMTc2LTEuNjA0LDEuMzAyLTIuOTQ4YzIuMjQ0LTIuMDUsNS04LjY0NSw3Ljg5OC05LjUxMWMxLjY5Ny0wLjUxMywxMC4xODMsMy4yNjgsMTIuOTE0LDMuMjc3ICAgYy0wLjk1LDIuNzMtMS44NzQsNS40NzgtMi44NjUsOC4yYzQuMjY3LDIuMTYsMTIuMjU4LDguNzg4LDE3LjIyMyw1LjkwNmMyLjMxOC0xLjM1MiwzLjI2OC0xMy4wMTQsMy45NDktMTUuNzQ1ICAgYzIuODgxLDQuNDUzLDcuODMsNy43NTUsOS41MTksMTIuMDljMi41NzksNi42MDQsNi44NjQsNi44MywxMC43MjksMTIuMjMzYzMuNjA0LDUuMDE2LDYuOTA2LDkuODY0LDkuOTA2LDE1LjE5OSAgIEMyOTcuNzU3LDQxMi40MjMsMjk2LjU2NCw0MTMuNzE3LDI5My44NDksNDIxLjY5MXogTTIzNy40NjYsMjQwLjE1NWMxLjA1LDEuNDQ0LTMuNzg5LDguOTU2LTQuOTA3LDYuOTgyICAgYy0wLjc3Mi0xLjM3LTAuOTgyLTQuNzMtMS41NTQtNi40MjhjLTAuMTA5LTAuMzE5LTAuMzE5LTAuOTU4LDAtMC4wMDhDMjMwLjA2NCwyMzcuOTI4LDIzNi4yNCwyMzguNDc1LDIzNy40NjYsMjQwLjE1NXogICAgTTI2Ny45ODksMjAyLjM4MWMzLjk5MS0wLjAwOCw0LjE2OCw1LjEyNSw4LjYwNCwzLjc3MmMtMC44NjYsMC4yNiwyLjQ3OCwzLjYyMS0yLjE2LDQuNDg2Yy0yLjkxNiwwLjUyOS02Ljk2NSwzLjczLTEwLjE2NiwxLjYzICAgYzAuNDI4LDAuMjg2LDAuMjE4LDAuMTUxLDAuMDA4LDAuMDE2YzEuOTUsMS4zMTEtMy40NywyLjQxMi0zLjY3MSwwLjg5QzI2MC42MDQsMjEzLjIwMiwyNzAuMTgyLDIwMi4zNzIsMjY3Ljk4OSwyMDIuMzgxeiAgICBNMjY4LjU2OSwxNzcuMDY2YzAsMC4wOTIsMS42MDQtMi4yMSwyLjI1Mi0zLjE3NmMtMC43MDYsMi44MjQsNi40MzUsMTYuNTI2LDQuMzM1LDE3LjE3M2MtMS4zMSwwLjQwNC0zLjEwMS0yLjEzNC0zLjU5Ni0xLjUyOSAgIGMtMi4yMDksMi42OTcsMS43NCw2LjgzLDAuNDc5LDcuOTczYzAuMzE5LTAuMjg2LTIuOTU4LDAuNzIzLTMuNzcyLDEuMTkzYzAuMDE3LDAuMTUyLDAuMDQyLDAuMjM2LDAuMDY3LDAuMjM2ICAgYy0wLjMzNSwwLTAuMzAyLTAuMDkzLTAuMDY3LTAuMjM2QzI2OC4wMjMsMTk2LjQ1OCwyNjguNzEyLDE3OC42MiwyNjguNTY5LDE3Ny4wNjZ6IE0yOTEuOTU5LDM2My40NDIgICBjLTcuNjg3LDEuNjEzLTE3LjQ4NC0xMy44OC0yMS44ODYtNy4wNWMtMy4xNTEsNC44OS0xNi44NTQtMi4yMDEtMTcuNDA5LTAuMDgzYzAuNzgyLTIuOTkyLDUuODQtMC45MzMsMi41NzktNS4yOTQgICBjLTIuODA1LTMuNzU2LTYuMzUxLTMuNTQ2LTEwLjg5Ny00LjIwMWMtMy4yNTEtMC40Ny0yLjM1Mi0yLjQ1My0zLjc3Mi00LjI2OGMtMC44NzQtMS4xMTctMS44MzIsMS45NTgtMi42ODksMS42MzkgICBjLTAuMTE4LTAuMDQyLTQuODQ4LTYuOTgyLTQuODQ4LTcuMjA5YzUuODY0LTcuNjg4LDcuNDk0LDIuNzY0LDEwLjc3MSw0LjFjNi42MTIsMi42OTcsNi43MDQtNC43MywxMy4wOTgtMS44MDYgICBjMy4yNTEsMS40ODcsMjcuNywxMC40MTgsMjYuODc3LDEyLjQ5M2MtMC40MjgsMC40OTYtMC45NDksMC44NzQtMS41NzEsMS4xMThDMjgzLjM4MiwzNTQuNzcsMjkxLjE0NCwzNjMuNjE4LDI5MS45NTksMzYzLjQ0MnogICAgTTIzOS4xMzgsMjM5LjcyNmMwLTAuMDA5LDAtMC4wMDksMC0wLjAxN2MwLjkwNy0yLjg0OCw4LjY3OS0zLjkwNyw3LjMwMS0wLjc1NkMyNDUuNzI1LDI0MC41OTIsMjM4LjA4OCwyNDMuMTIsMjM5LjEzOCwyMzkuNzI2eiAgICBNMjYxLjIxOCwyMjEuOTQ4YzAuMDA4LTAuMTc2LDMuMTI2LTExLjA2Niw0LjcyMi04LjE1YzEuNzU2LDMuMjE4LDAuOTUsMTkuNDMzLTIuODc0LDIxLjc2OSAgIGMtMC45OTEtMC4wODQtMS4zNTItMC41OTctMS4wNzYtMS41MzhjMCwyLjA1LTEzLjMyNSw1LjA1LTEzLjE0LDUuMjM0Yy0yLjA3NS0yLjE1MSwxLjM0NC0zLjQyOC0zLjc1Ni0yLjk0MSAgIGMwLjA3NSwwLTExLjMwOSwxLjQ4Ny03Ljc0Ni0wLjU0NmMzLjc5OC0yLjE2OCw3LjA3NC0yLjcxNCwxMS41MjctMi43OThjMy42NDYtMC4wNjcsMy4zMTktNS4yNzYsNS45NC01LjUxMSAgIGMxLjIyNy0wLjEwOSwwLjUzOCwzLjM2OSwyLjc0OCwxLjUzN0MyNjAuNDc4LDIyNi41ODYsMjYwLjg4MSwyMjUuNDYsMjYxLjIxOCwyMjEuOTQ4eiBNMjkyLjUzLDM1MS43MjkgICBjLTIsMC40ODgtNy4zNDMtMi4yMTgtNS40NzgtMi40NTNjLTEuNjQ2LDAuMjAxLTAuNTg4LDAuMDY3LDAuMDE3LTAuMDA5YzMuMjg1LTAuNDEyLDcuNjEyLTEuNjk3LDEwLjIxNy0xLjk2NiAgIEMyOTkuODk5LDM0Ny4wNDEsMjkzLjUzOSwzNTEuNDg2LDI5Mi41MywzNTEuNzI5eiBNMjk5LjcwNiwzNDcuMTQyYy0wLjUxMy0wLjUzOC0wLjkwOC0xLjEzNC0xLjE2LTEuODA2ICAgQzI5Ni4zNTQsMzQxLjgzMiwzMDMuNzA1LDM0OC42MDQsMjk5LjcwNiwzNDcuMTQyeiBNMzc2LjM3MSwzODYuNTU1Yy0wLjkyNC0wLjE0My0xLjI1Mi0wLjY3Mi0wLjk5MS0xLjU4ICAgYzAuOTg0LTIuODIzLDMuMDU5LDEuMDMzLDMuMzg2LDEuMzdDMzc3Ljk2OCwzODYuNDEyLDM3Ny4xNjksMzg2LjQ4OCwzNzYuMzcxLDM4Ni41NTV6IE0zNzkuOTU4LDM4MS41MyAgIGMtMC44NjUsMCwxLjkyNC0zLjA0MiwzLjU4OC0xLjM5NUMzODUuMjYsMzgxLjgyNCwzODAuMjk1LDM4MS40NDYsMzc5Ljk1OCwzODEuNTN6IE0zOTcuNTAyLDEyOC44ODIgICBjLTQuNTg4LTAuODY1LTMuMTA4LTQuMTU5LTYuNzEzLTQuNDYyYy00LjIyNi0wLjM1My0xLjkzMiw1LjAxNi01LjcxMyw0Yy0xMy44OTctMy43My0wLjYzLDUuNDY5LTQuODgyLDkuNjEyICAgYzAuNDI4LTAuNDEyLTcuMzM1LTEuMDkzLTguNzEyLTAuNjIyYy0yLjgxNSwwLjk2Ni02LjczOCwxLjYyMi05LjEwOCwzLjM1MmMtMy4xOTMsMi4zMzYtNi4zODUsNC42NzItOS41NzgsNi45OTkgICBjLTEuNjgsMS4yMzYtMy44MjItMi4wMTYtNi4xNS0wLjkzMmMtMi43MzEsMS4yNjktOC43OCwwLjUxMy0xMC41OTUsMS42OTdjLTEuOTQxLDEuMjc3LTMuMzY5LDcuMTkyLTQuMzE4LDkuMjA4ICAgYy0zLjc1Niw4LjAwNy04LjEwOCwyNS4wODctMTkuNzI3LDI2LjIyMmMtMC41NzItNC43OS01Ljk1Ny0yNC43MTgsMy43My0yNS43NTJjNy43NDctMC44NCwxOC44Mi0xMi4wMTQsMTYuNzI4LTE5Ljg0NSAgIGMtNy43NzEsMC4zMTEtMy44NDcsNC43MzktNy4xODMsNi4yMzVjLTYuMDg0LDIuNzIyLTYuOTQtMy4xNjgtOS4wNzQtMi4yODZjLTYuMzc3LDIuNjU1LTYuOTc0LDIuNDU0LTguMjg0LDguNzU1ICAgYy0wLjQ4NywyLjMzNi04Ljg0NywwLjc3NC0xMS4xMDcsMC42ODljLTYuNDM2LTAuMjI3LTIyLjM1OC0yLjU4OC0yNy4xMzgsMC42MDVjLTcuNDI3LDQuOTU3LTE0Ljg1NCw5LjkxNC0yMi4yODIsMTQuODcxICAgYzMuOTgyLDcuNTc5LDE0Ljg0NiwyLjUxMiwxNy4yMjQsMTAuMTY3YzEuNTcxLDUuMDIzLTUuMTkyLDE0LjkzOC04LjkxNCwxOC43NmMtMy42NjQsMy43NzItNy4zMzUsNy41NDUtMTEuMDA2LDExLjMxOCAgIGMtMy41MTIsMy42MTItMy45OTEtMC40ODgtNy4zNTIsMS40MTFjLTUuMjE4LDIuOTQxLTUuMjAxLDExLjg5Ny0xMi41NywxMi4xNGMzLjExNyw0LjEwOSwzLjY4MSw3LjAxNiw0LjA1OCwxMS44NDcgICBjMC4zNzgsNC44OS0zLjI0Myw0LjQ4Ny04LjAwNyw2LjE5MmMtMC4xNDMtMy4wMTYtMC41ODgtNi4wNCwwLTkuMDIzYzAuODQ5LTQuMjYtNC4wNzQtMC4zMzYtMy4yMjYtNC41ODggICBjMS40Ny03LjM4NS03LjkwNi0zLjIwMS0xMS44NDYtMi4xMzRjMC4zMDItMi4xMzQtMC40MTItNC40NDQsMC02LjU2MWMtNC4wNjcsMi4yOTQtOC4xMzIsNC41OTUtMTIuMTk5LDYuODg5ICAgYzMuNjg4LDMuMTg1LDYuMjg0LDcuMjc2LDExLjgzOCw0LjU4N2MwLjU3MSw0LjA3NS0zLjEyNiw0LjUzNy02LjgxNCw2LjU2MmM1LjE0MiwzLDUuNDM2LDkuODMsNi45NDgsMTQuNzc5ICAgYzEuOTMyLDYuMjg1LTIuMjUyLDguNDEtNi42NDUsMTMuNTYxYy00LjY3Miw1LjQ3OC01LjY1NSw2Ljk4Mi0xMi43NDYsOC45MzFjLTMuOTMyLDEuMDkyLTcuODY0LDIuMTc2LTExLjc5NiwzLjI2ICAgYy0yLDAuNTU0LTAuMzE5LDMuNDI4LTQuMTE3LDMuNDI4Yy0wLjk4Mi02LjczLTguODQ3LTEuMzg2LTExLjI1OCwxLjUxMmMtMy41NzksNC4yODQsMy4xNTksNy40ODYsNi43NTYsMTAuOTk4ICAgYzkuNjUzLDkuNDM2LTMuODc0LDE1LjEyMy0xMC45MzEsMTkuOTYyYy0yLjU2My02Ljc3Mi0xMC4yMzQtOC42Ny0xMi4yMDgtMTQuMTA2Yy0yLjY4OSw5LjgzOC0zLjI4NSwxMC4wNzQsNC4wMzMsMTcuNTY4ICAgYzUuMzM1LDUuNDY5LDYuMDU4LDkuNzk2LDguMTc1LDE2Ljg3Yy00LjMxLTEuOTY2LTkuMzc3LTIuOTA3LTExLjA3My03LjE0MmMtMi4wNzYtNS4xNjctMy42MjEtOC4wNDgtNy40Ny0xMi4yNjcgICBjLTMuOTY1LTQuMzUyLTQuMTM0LTE3LjI1Ni02LjIyNS0yMy4yMzFjLTEuNTU1LDEuMTY4LTQuMjAxLDEuMTE4LTUuNzQ3LDIuMjk0Yy0xLjE2LTQuNDM2LTQuMjE3LTE2LjkxMy05LjY4Ny0xOC42OTQgICBjLTQuNDUzLTEuNDUzLTE0LjI0MSw0LjY0Ni0xNy44Miw3LjI2N2MtNC43MjEsMy40Ny0xNS40NzYsOC4yMjYtMTUuNjM2LDE0LjA5Yy0wLjI2OCwxMC4yMzQtMC41MzgsMTAuOTk4LTguODk3LDE3LjY3NyAgIGMtOC4wMDctMTEuNjctMTIuMTA4LTIxLjIzOS0xNC4zNTktMzQuNzc1Yy03LjY2MiwzLjc1NS0xMS44NzItNi41NzgtMTYuNTA5LTEwLjgyMWMtMi4xNTEtMS45NTctNi4xNi0yLjE1MS0xMC40NjEtMS45NjYgICBjLTAuMDkyLTIuNjU1LTAuMTUtNS4zMTgtMC4xNS03Ljk5YzAtMzEuMTQ1LDYuMzAxLTYwLjcyOCwxNy42OTQtODcuNjcyYzE2LjEyMy0zOC4xMzUsNDIuNTA0LTcwLjkzNiw3NS42NDktOTQuOTIyICAgYzIuMTQyLTAuMDUsNC4yNTEsMC4yODYsNi4zMjYsMS4yOTRjNC4wMjUsMS45NjYsOS4zNjgtNC45NzQsMTUuMzkyLTIuOTI0Yy0yLjE0Mi04Ljc0NiwxOC42NjgtOS4xNzQsMTMuOTk3LDAuMzI4ICAgYzQuNTM3LTEuMzM2LDguNDg2LTMuMTg0LDEzLjIwOC0yLjQ4N2M3Ljc0NiwxLjEyNiw1LjU3OCwyLjQwMyw0LjUyOSw5LjM2OGMtMC4wNDIsMC4yNjEtMjQuMTg5LDguODM4LTE1LjgxMiwxMC4wMTQgICBjOC4xMDgsMS4xNDMsMTUuMTMyLTQuMzI3LDIzLjU0Mi0zLjcxM2M5LjY4NywwLjY5OCwxNC4wMDUsNC44OSwyNC40MjQsNS4xODRjLTQuMTU5LTkuOTksMTIuNzI4LTIuNzg5LDE3Ljk0Ni0xLjYzOCAgIGMtNS43OCw0Ljc0OCw1LjczOCwxMC4xNTgsOS42OTYsMTMuNDUyYy0wLjE0My03LjMwMSwxNC44NzEtNS45NzMsMjEuNi01LjYyOWMzLjcwNiwwLjE5NCwxLjk4My02LjYzOCw2LjU3LTUuODM5ICAgYzYuMjI2LDEuMDg0LDEyLjQ0MywyLjE2NywxOC42NjgsMy4yNTFjNS4yNTIsMC45MTYsOC4wMTUtMC4zNDQsMTMuMTQ4LDIuNDAzYzMuNTEyLDEuODgyLDEuMTQzLDYuMzk0LDUuOTQ4LDUuODgyICAgYzMuNDItMC4zNjIsMTEuNTk1LTIuODA2LDE0LjA0OC0wLjM2MmMzLjY1NSwzLjYzOCwxLjU5Nyw3LjgxNCw3LjU5Niw5LjgwNWMxLjM1Mi02LjY2MywxMi44NzEtNi42MTIsMTguNjYtNC45MjQgICBjMi42OCwwLjc5LDE0Ljk3MiwxMC41NDQsMTAuNDEtMS4zMTFjMTAuODcxLDIuMjEsMjEuNzM0LDQuNDExLDMyLjYwNiw2LjYyMWM0LjI2LDAuODY2LDQuMzUyLDQuMTkyLDcuOTU2LDUuODQ4ICAgYzIuMzQ0LDEuMDc2LDguODU2LDAuNzQ4LDEyLjIsMS45NjZDNDEzLjg1MSwxMjYuOSw0MDMuNDI1LDEzMC4wMDgsMzk3LjUwMiwxMjguODgyeiBNNDA2LjY5MywxMzQuNjU0ICAgYzAuMTc2LTAuNTg4LDAuMzYyLTEuMTc2LDAuNTQ2LTEuNzY0YzEuNDI5LTEuNDEyLDkuNjItMS41NDYsMTAuODE0LDAuNDI4QzQxOS4xMzYsMTM1LjEwOCw0MDcuNDQxLDEzNS4yOTMsNDA2LjY5MywxMzQuNjU0eiAgICBNNDM3LjEwNywxNjguMTg1YzQuOTc0LTQuODY0LDkuODk3LTkuNzU0LDE1LjA4MS0xNC40MjVjLTEwLjE0OSwwLjUxMy0xMi40NjgsMi45MzItMTQuMzU4LTYuNTYyICAgYy0yLjE1MSwxLjMxLTQuMzEsMi42MjEtNi40NjEsMy45MzJjLTIuNjM4LTMuOTIzLTguODM4LTkuNTUyLTIuODc0LTEzLjc3OGMxLjc4Mi0xLjI1Miw2LjAwOCwwLjQ4Nyw3Ljg5OC0wLjY1NiAgIGMxLjgzMi0xLjEsMy4yOTMtNi4wMDgsNC4zMS03Ljg3M2MtNS4xNzYtMS44NC01LjMxLDIuNzIzLTkuMzM0LDIuNjNjLTMuODgxLTAuMDkyLTkuMjU4LTMuMjkzLTEyLjkyMi00LjU5NiAgIGMzLjM3Ny02Ljk5LDExLjQ4NS01LjkwNiwxNy4wMTMtNi45MzljMi41MjEsMy4zMTgsNC45ODIsNi42ODcsNy4zMjYsMTAuMTU4YzYuNDEsOS40OTQsMTIuMDksMTkuNTA4LDE3LjAyMiwyOS45NDMgICBDNDUzLjQwNiwxNjQuNzkxLDQ0NS4xNTYsMTcwLjcxNSw0MzcuMTA3LDE2OC4xODV6IE00NTMuMTgsMjc4LjA5NmMtMS4wNTEsMC4xOTQtMS42NzMtMS43NDctMC4yMzYtMS43NDcgICBDNDU0LjM4MSwyNzYuMzQ5LDQ1NC4zODEsMjc3Ljg3OCw0NTMuMTgsMjc4LjA5NnogTTQ1Ny4wMTEsMjgzLjc4NWMtMC40Ny0wLjU4LTAuMjI3LTAuMjc4LTAuMDA4LTAuMDE3ICAgYy0yLjI0My0yLjczOS0xLjY2My02LjIwOSwyLjQwMy00LjM1MkM0NjEuNDk4LDI4MC4zNTYsNDU4LjQzLDI4NS40OTksNDU3LjAxMSwyODMuNzg1eiIvPiYjeGE7ICAgICAgICAgICAgICAgICAgICAgICAgICAgICAgICAgICAgICAgICAgICAgICAgICAgIDxwYXRoIGQ9Ik0yMzEuMDA1LDI0MC43MDF2MC4wMDhDMjMxLjA1NSwyNDAuODYsMjMxLjA4OSwyNDAuOTQ1LDIzMS4wMDUsMjQwLjcwMXoiLz4mI3hhOyAgICAgICAgICAgICAgICAgICAgICAgICAgICAgICAgICAgICAgICAgICAgICAgICAgICA8cGF0aCBkPSJNMjg3LjA3LDM0OS4yNjhjLTAuMDA4LDAtMC4wMDgsMC4wMDktMC4wMTcsMC4wMDlDMjg3LjYwOCwzNDkuMiwyODcuNDE0LDM0OS4yMjYsMjg3LjA3LDM0OS4yNjh6Ii8+JiN4YTsgICAgICAgICAgICAgICAgICAgICAgICAgICAgICAgICAgICAgICAgICAgICAgICA8L2c+JiN4YTsgICAgICAgICAgICAgICAgICAgICAgICAgICAgICAgICAgICAgICAgICAgIDwvc3ZnPg==;" vertex="1" parent="1">
          <mxGeometry x="-281" y="665" width="50" height="50" as="geometry" />
        </mxCell>
        <mxCell id="fHKddjJ4R96vvE8QsRok-1826" value="" style="shape=image;verticalLabelPosition=bottom;labelBackgroundColor=default;verticalAlign=top;aspect=fixed;imageAspect=0;image=data:image/svg+xml,PHN2ZyB4bWxucz0iaHR0cDovL3d3dy53My5vcmcvMjAwMC9zdmciIHZpZXdCb3g9IjAgMCA1MTIgNTEyIiBoZWlnaHQ9IjI0IiB3aWR0aD0iMjQiIGZpbGw9IndoaXRlIj4mI3hhOyAgICAgICAgICAgICAgICAgICAgICAgICAgICAgICAgICAgICAgICAgICAgICAgIDxwYXRoIGQ9Ik0yNTYgMTZjLTUyLjUgMjUyLjYzMi0yMTAgMjc3Ljg0NSAwIDQ1NC42ODhDNDY2IDI5My44NDUgMzA4LjUgMjY4LjYzIDI1NiAxNnpNMTI0Ljc1IDE2Ny40MDdDOTguNSAyNDMuMTk3IDQ2IDI5NC4xMTcgNDYgMzY5LjkwN1MxNTEgNDk2IDIyOS43NSA0OTZjLTE1Ny41LTEyNi4zMTctMTA1LTIwMi4yNzgtMTA1LTMyOC41OTN6bTI2Mi41IDBjMCAxMjYuMzE3IDUyLjUgMjAyLjI3OC0xMDUgMzI4LjU5M0MzNjEgNDk2IDQ2NiA0NDUuNjk2IDQ2NiAzNjkuOTA3YzAtNzUuNzktNTIuNS0xMjYuNzEtNzguNzUtMjAyLjV6Ii8+JiN4YTsgICAgICAgICAgICAgICAgICAgICAgICAgICAgICAgICAgICAgICAgICAgIDwvc3ZnPg==;" vertex="1" parent="1">
          <mxGeometry x="-280" y="523" width="50" height="50" as="geometry" />
        </mxCell>
        <mxCell id="fHKddjJ4R96vvE8QsRok-1827" value="" style="shape=image;verticalLabelPosition=bottom;labelBackgroundColor=default;verticalAlign=top;aspect=fixed;imageAspect=0;image=data:image/svg+xml,PHN2ZyB4bWxuczp4bGluaz0iaHR0cDovL3d3dy53My5vcmcvMTk5OS94bGluayIgeG1sbnM9Imh0dHA6Ly93d3cudzMub3JnLzIwMDAvc3ZnIiB4bWw6c3BhY2U9InByZXNlcnZlIiBzdHlsZT0iZW5hYmxlLWJhY2tncm91bmQ6bmV3IDAgMCA1NS44NjcgNTUuODY3OyIgdmlld0JveD0iMCAwIDU1Ljg2NyA1NS44NjciIGhlaWdodD0iMjQiIHdpZHRoPSIyNCIgZmlsbD0id2hpdGUiPiYjeGE7ICAgICAgICAgICAgICAgICAgICAgICAgICAgICAgICAgICAgICAgICAgICAgICAgPHBhdGggZD0iTTU1LjgxOCwyMS41NzhjLTAuMTE4LTAuMzYyLTAuNDMxLTAuNjI2LTAuODA4LTAuNjgxTDM2LjkyLDE4LjI2OEwyOC44MywxLjg3NmMtMC4xNjgtMC4zNDItMC41MTYtMC41NTgtMC44OTYtMC41NTggIHMtMC43MjksMC4yMTYtMC44OTYsMC41NThsLTguMDkxLDE2LjM5M2wtMTguMDksMi42MjljLTAuMzc3LDAuMDU1LTAuNjg5LDAuMzE4LTAuODA4LDAuNjgxYy0wLjExNywwLjM2MS0wLjAyLDAuNzU5LDAuMjUzLDEuMDI0ICBsMTMuMDkxLDEyLjc2bC0zLjA5MSwxOC4wMThjLTAuMDY0LDAuMzc1LDAuMDksMC43NTQsMC4zOTcsMC45NzhjMC4zMDksMC4yMjYsMC43MTgsMC4yNTUsMS4wNTMsMC4wNzZsMTYuMTgyLTguNTA2bDE2LjE4LDguNTA2ICBjMC4xNDYsMC4wNzcsMC4zMDcsMC4xMTUsMC40NjYsMC4xMTVjMC4yMDcsMCwwLjQxMy0wLjA2NCwwLjU4OC0wLjE5MWMwLjMwOC0wLjIyNCwwLjQ2Mi0wLjYwMywwLjM5Ny0wLjk3OGwtMy4wOS0xOC4wMTcgIGwxMy4wOTEtMTIuNzYxQzU1LjgzOCwyMi4zMzYsNTUuOTM2LDIxLjkzOSw1NS44MTgsMjEuNTc4eiIvPiYjeGE7ICAgICAgICAgICAgICAgICAgICAgICAgICAgICAgICAgICAgICAgICAgICA8L3N2Zz4=;" vertex="1" parent="1">
          <mxGeometry x="-191" y="402" width="50" height="50" as="geometry" />
        </mxCell>
      </root>
    </mxGraphModel>
  </diagram>
</mxfile>
